<svg width="160" height="160" viewBox="0 0 160 160" fill="none" xmlns="http://www.w3.org/2000/svg">
<rect x="5" y="5" width="150" height="150" stroke="#CCCCCC" stroke-width="10"/>
<path d="M104.589 21.9911L104.589 21.9911C100.398 25.1084 96.0153 31.1252 95.5102 42.7826L117.04 64.3525C128.674 63.8462 134.679 59.4555 137.791 55.2575L137.791 55.2574C140.345 51.8117 139.517 46.9185 136.033 44.3887L136.033 44.3886C134.485 43.2644 133.624 42.2397 133.125 41.2089C132.645 40.2173 132.523 39.2562 132.403 38.3191C132.4 38.2908 132.396 38.2624 132.392 38.2341C132.268 37.2622 132.133 36.2791 131.646 35.1406C131.159 34.0028 130.307 32.6825 128.713 31.0857L104.589 21.9911ZM104.589 21.9911C108.027 19.4328 112.91 20.2619 115.435 23.7524L115.435 23.7524M104.589 21.9911L115.435 23.7524M115.435 23.7524C116.557 25.303 117.58 26.1666 118.609 26.6662M115.435 23.7524L118.609 26.6662M118.609 26.6662C119.599 27.1469 120.559 27.2698 121.494 27.3896M118.609 26.6662L121.494 27.3896M121.494 27.3896C121.523 27.3932 121.551 27.3968 121.579 27.4005M121.494 27.3896L121.579 27.4005M121.579 27.4005C122.549 27.525 123.53 27.6598 124.666 28.1477M121.579 27.4005L124.666 28.1477M124.666 28.1477C125.802 28.6355 127.119 29.489 128.713 31.0856L124.666 28.1477Z" fill="#FECD38" stroke="#BA6E13"/>
<path d="M109.557 52.0743C109.099 52.0743 108.64 51.8991 108.29 51.5486C107.59 50.8468 107.59 49.7102 108.29 49.0084L118.728 38.5512C119.428 37.8503 120.563 37.8503 121.263 38.5512C121.963 39.253 121.963 40.3897 121.263 41.0906L110.825 51.5486C110.475 51.8991 110.016 52.0743 109.557 52.0743Z" fill="#BA6E13"/>
<path d="M100.506 50.2894C100.371 50.2894 100.235 50.274 100.098 50.2422C99.134 50.0179 98.534 49.0528 98.7588 48.0868C101.308 37.1004 106.802 31.9517 107.034 31.7384C107.764 31.0684 108.897 31.1165 109.567 31.8473C110.235 32.5773 110.188 33.7103 109.462 34.3813C109.374 34.4639 104.521 39.1132 102.25 48.8994C102.057 49.7292 101.321 50.2894 100.506 50.2894Z" fill="#BA6E13"/>
<path d="M111.338 61.1451C110.523 61.1451 109.786 60.584 109.593 59.7551C109.37 58.7891 109.969 57.824 110.934 57.5998C120.742 55.3155 125.381 50.4229 125.426 50.3739C126.099 49.6503 127.232 49.6049 127.957 50.2767C128.682 50.9476 128.731 52.0771 128.063 52.8061C127.85 53.0394 122.711 58.544 111.745 61.0979C111.609 61.1297 111.472 61.1451 111.338 61.1451Z" fill="#BA6E13"/>
<path d="M22.9887 103.743L22.9887 103.743C26.1002 99.5445 32.1053 95.1538 43.7396 94.6475L65.2695 116.217C64.7644 127.875 60.3812 133.892 56.1909 137.009L56.1909 137.009C52.7527 139.567 47.87 138.738 45.3448 135.248L45.3447 135.248C44.2227 133.697 43.1999 132.834 42.1707 132.334C41.1806 131.854 40.221 131.731 39.2856 131.611C39.2573 131.607 39.229 131.604 39.2007 131.6C38.2306 131.475 37.2496 131.34 36.1135 130.852C34.9781 130.365 33.6603 129.511 32.0664 127.914C30.4728 126.318 29.6207 124.997 29.1338 123.859C28.6466 122.721 28.5121 121.738 28.3877 120.766C28.3841 120.738 28.3805 120.709 28.3769 120.681C28.2573 119.744 28.1347 118.783 27.655 117.791C27.1564 116.76 26.2946 115.736 24.7467 114.611L24.7467 114.611C21.2627 112.082 20.4342 107.188 22.9887 103.743Z" fill="#FECD38" stroke="#BA6E13"/>
<path d="M40.7846 120.974C40.3261 120.974 39.8666 120.799 39.5168 120.449C38.8172 119.747 38.8172 118.61 39.5168 117.909L49.9546 107.452C50.6551 106.75 51.7897 106.75 52.4902 107.452C53.1898 108.153 53.1898 109.29 52.4902 109.992L42.0515 120.449C41.7017 120.799 41.2432 120.974 40.7846 120.974Z" fill="#BA6E13"/>
<path d="M34.0371 109.204C33.6039 109.204 33.1698 109.047 32.8264 108.731C32.096 108.061 32.047 106.925 32.7167 106.194C32.9297 105.961 38.0688 100.456 49.034 97.903C49.9982 97.6779 50.9615 98.2789 51.1862 99.2449C51.4101 100.211 50.8102 101.176 49.846 101.401C39.9492 103.706 35.4036 108.573 35.3583 108.622C35.0049 109.007 34.5219 109.204 34.0371 109.204Z" fill="#BA6E13"/>
<path d="M52.5336 127.735C52.0497 127.735 51.5658 127.539 51.2124 127.153C50.5445 126.424 50.5925 125.29 51.3175 124.62C51.4063 124.536 56.2591 119.887 58.5291 110.101C58.7539 109.135 59.7172 108.534 60.6814 108.758C61.6456 108.983 62.2455 109.948 62.0217 110.914C59.4716 121.901 53.9781 127.048 53.7452 127.263C53.4009 127.578 52.9668 127.735 52.5336 127.735Z" fill="#BA6E13"/>
<path d="M56.6951 55.7613C56.0372 56.4213 55.4019 57.0941 54.7893 57.7759L49.4445 85.503L54.957 111.856C59.7227 115.182 65.4165 116.92 71.4328 117.129L80.611 97.8132L80.3083 60.1746L70.4296 46.0014C65.5542 48.3147 60.8718 51.5777 56.6951 55.7613Z" fill="#AC77E8"/>
<path d="M89.8018 41.8896L80.3074 60.1746L80.611 97.8131L91.5644 112.399C96.0021 110.135 100.258 107.073 104.085 103.239C105.976 101.344 107.678 99.3457 109.19 97.2711L113.47 69.8781L107.343 48.2857C102.406 44.3046 96.3029 42.1991 89.8018 41.8896Z" fill="#AC77E8"/>
<path d="M51.5762 108.369C39.5018 96.2723 40.8431 74.8423 54.3805 59.0021C54.5454 61.2372 54.6879 63.49 54.8101 65.7587C55.5868 80.2224 55.485 95.3724 54.5152 110.919C53.4859 110.149 52.5042 109.299 51.5762 108.369Z" fill="#FECD38" stroke="#BA6E13"/>
<path d="M109.107 97.3855C109.135 97.3474 109.162 97.3093 109.19 97.2711L113.47 69.8781L112.88 67.8018C112.632 75.9737 109.663 84.5869 104.12 92.1924C102.608 94.266 100.906 96.2643 99.0143 98.16C95.4474 101.733 91.5072 104.636 87.3957 106.849L91.5652 112.4C96.002 110.135 100.258 107.073 104.085 103.239C105.872 101.447 107.59 99.4573 109.107 97.3855Z" fill="#9345EB"/>
<path d="M107.473 48.7451L107.343 48.2866C107.286 48.2403 107.227 48.1967 107.169 48.1522C107.07 48.0732 106.968 47.997 106.867 47.9189C107.076 48.1904 107.276 48.4673 107.473 48.7451Z" fill="#905FA8"/>
<path d="M72.735 66.54L72.735 66.5399C72.3588 59.6177 71.77 52.8665 70.97 46.3003C77.0293 43.4877 83.364 42.159 89.3595 42.3716C90.3268 49.9502 91.0247 57.7564 91.4547 65.7567C92.2482 80.5831 92.1233 96.1277 91.0849 112.082C84.8309 115.226 78.2274 116.766 71.9732 116.643C73.3454 99.3188 73.5975 82.4755 72.735 66.54Z" fill="#FECD38" stroke="#BA6E13"/>
<path d="M109.558 50.2776C121.107 61.8487 120.554 81.6789 109.19 97.2711C109.518 86.7514 109.415 76.484 108.878 66.567C108.54 60.3307 108.028 54.2324 107.343 48.2866C108.112 48.9049 108.85 49.5694 109.558 50.2776Z" fill="#FECD38"/>
<path d="M109.558 50.2785C108.857 49.5749 108.117 48.9094 107.343 48.2866C107.356 48.3946 107.367 48.5036 107.38 48.6125C114.091 57.9657 114.594 70.9994 109.365 83.0535C109.395 87.7346 109.34 92.4756 109.19 97.2711C120.554 81.6799 121.107 61.8487 109.558 50.2785Z" fill="#BA6E13"/>
<path d="M71.4327 117.129L74.1078 111.499C71.4988 111.95 68.9016 112.137 66.3624 112.049C62.1594 111.904 58.1141 111.008 54.4321 109.35L54.9568 111.856C55.5522 112.271 56.1621 112.663 56.7856 113.029C60.2156 115.043 64.048 116.311 68.086 116.85C69.188 116.996 70.3045 117.09 71.4327 117.129Z" fill="#9345EB"/>
<path d="M55.0919 109.635C53.265 108.866 51.5206 107.916 49.8867 106.776C49.5396 106.533 49.197 106.282 48.859 106.022C49.0384 106.256 49.2224 106.488 49.41 106.717C49.4118 106.719 49.4127 106.72 49.4145 106.722C50.8853 108.523 52.5899 110.133 54.4648 111.504C54.628 111.623 54.792 111.74 54.9569 111.856C55.0049 111.114 55.0484 110.375 55.0919 109.635Z" fill="#BA6E13"/>
<path d="M92.0328 104.002C90.2322 105.251 88.3808 106.358 86.495 107.321C81.7156 109.759 76.7233 111.268 71.8225 111.824C71.7029 113.588 71.576 115.355 71.4328 117.129C75.5479 117.271 79.8162 116.698 84.0428 115.43C86.5792 114.669 89.1003 113.658 91.5652 112.4C91.7501 109.588 91.9051 106.788 92.0328 104.002Z" fill="#BA6E13"/>
<path fill-rule="evenodd" clip-rule="evenodd" d="M66.9361 160H150H160V150V66.9361L150 76.9361V150H76.9361L66.9361 160ZM84 10H10V84L0 94V10V0H10H94L84 10Z" fill="#9345EB"/>
</svg>
