<?xml version="1.0" standalone="no"?>
<!DOCTYPE svg PUBLIC "-//W3C//DTD SVG 1.1//EN" "http://www.w3.org/Graphics/SVG/1.1/DTD/svg11.dtd" >
<svg xmlns="http://www.w3.org/2000/svg">
<metadata>Generated by IcoMoon</metadata>
<defs>
<font id="codecandy" horiz-adv-x="1024">
<font-face units-per-em="1024" ascent="960" descent="-64" />
<missing-glyph horiz-adv-x="1024" />
<glyph unicode="&#x20;" horiz-adv-x="512" d="" />
<glyph unicode="&#xe900;" glyph-name="edit-3" d="M128 170.667h170.667c12.8 0 21.333 4.267 29.867 12.8l469.333 469.333c17.067 17.067 17.067 42.667 0 59.733l-170.667 170.667c-17.067 17.067-42.667 17.067-59.733 0l-469.333-469.333c-8.533-8.533-12.8-17.067-12.8-29.867v-170.667c0-25.6 17.067-42.667 42.667-42.667zM170.667 366.934l426.667 426.667 110.933-110.933-426.667-426.667h-110.933v110.933zM896 42.667h-768c-25.6 0-42.667-17.067-42.667-42.667s17.067-42.667 42.667-42.667h768c25.6 0 42.667 17.067 42.667 42.667s-17.067 42.667-42.667 42.667z" />
<glyph unicode="&#xe901;" glyph-name="file-text" d="M891.733 614.4c-4.267 4.267-4.267 8.533-8.533 12.8l-256 256c-4.267 4.267-8.533 8.533-12.8 8.533-4.267 4.267-12.8 4.267-17.067 4.267h-341.333c-72.533 0-128-55.467-128-128v-682.667c0-72.533 55.467-128 128-128h512c72.533 0 128 55.467 128 128v512c0 4.267 0 12.8-4.267 17.067zM640 750.934l110.933-110.933h-110.933v110.933zM768 42.667h-512c-25.6 0-42.667 17.067-42.667 42.667v682.667c0 25.6 17.067 42.667 42.667 42.667h298.667v-213.333c0-25.6 17.067-42.667 42.667-42.667h213.333v-469.333c0-25.6-17.067-42.667-42.667-42.667zM682.667 426.667h-341.333c-25.6 0-42.667-17.067-42.667-42.667s17.067-42.667 42.667-42.667h341.333c25.6 0 42.667 17.067 42.667 42.667s-17.067 42.667-42.667 42.667zM682.667 256h-341.333c-25.6 0-42.667-17.067-42.667-42.667s17.067-42.667 42.667-42.667h341.333c25.6 0 42.667 17.067 42.667 42.667s-17.067 42.667-42.667 42.667zM341.333 512h85.333c25.6 0 42.667 17.067 42.667 42.667s-17.067 42.667-42.667 42.667h-85.333c-25.6 0-42.667-17.067-42.667-42.667s17.067-42.667 42.667-42.667z" />
<glyph unicode="&#xe902;" glyph-name="filter" d="M977.067 827.734c-8.533 17.067-21.333 25.6-38.4 25.6h-853.333c-17.067 0-29.867-8.533-38.4-25.6-8.533-12.8-4.267-29.867 4.267-42.667l332.8-392.533v-264.533c0-17.067 8.533-29.867 25.6-38.4l170.667-85.333c4.267-4.267 8.533-4.267 17.067-4.267s17.067 0 21.333 4.267c12.8 8.533 21.333 21.333 21.333 38.4v349.867l332.8 392.533c8.533 12.8 12.8 29.867 4.267 42.667zM563.2 435.2c-4.267-8.533-8.533-17.067-8.533-29.867v-294.4l-85.333 42.667v251.733c0 8.533-4.267 21.333-8.533 25.6l-281.6 337.067h669.867l-285.867-332.8z" />
<glyph unicode="&#xe903;" glyph-name="home" d="M921.6 588.8l-384 298.667c-17.067 12.8-38.4 12.8-51.2 0l-384-298.667c-12.8-8.533-17.067-21.333-17.067-34.133v-469.333c0-72.533 55.467-128 128-128h597.333c72.533 0 128 55.467 128 128v469.333c0 12.8-4.267 25.6-17.067 34.133zM597.333 42.667h-170.667v341.333h170.667v-341.333zM853.333 85.334c0-25.6-17.067-42.667-42.667-42.667h-128v384c0 25.6-17.067 42.667-42.667 42.667h-256c-25.6 0-42.667-17.067-42.667-42.667v-384h-128c-25.6 0-42.667 17.067-42.667 42.667v448l341.333 264.533 341.333-264.533v-448z" />
<glyph unicode="&#xe904;" glyph-name="link-2" d="M384 256h-128c-93.867 0-170.667 76.8-170.667 170.667s76.8 170.667 170.667 170.667h128c25.6 0 42.667 17.067 42.667 42.667s-17.067 42.667-42.667 42.667h-128c-140.8 0-256-115.2-256-256s115.2-256 256-256h128c25.6 0 42.667 17.067 42.667 42.667s-17.067 42.667-42.667 42.667zM768 682.667h-128c-25.6 0-42.667-17.067-42.667-42.667s17.067-42.667 42.667-42.667h128c93.867 0 170.667-76.8 170.667-170.667s-76.8-170.667-170.667-170.667h-128c-25.6 0-42.667-17.067-42.667-42.667s17.067-42.667 42.667-42.667h128c140.8 0 256 115.2 256 256s-115.2 256-256 256zM298.667 426.667c0-25.6 17.067-42.667 42.667-42.667h341.333c25.6 0 42.667 17.067 42.667 42.667s-17.067 42.667-42.667 42.667h-341.333c-25.6 0-42.667-17.067-42.667-42.667z" />
<glyph unicode="&#xe905;" glyph-name="map-pin" d="M512 938.667c-234.667 0-426.667-192-426.667-426.667 0-315.733 388.267-580.267 401.067-588.8 8.533-4.267 17.067-8.533 25.6-8.533s17.067 4.267 25.6 8.533c12.8 8.533 401.067 273.067 401.067 588.8 0 234.667-192 426.667-426.667 426.667zM512 8.534c-81.067 59.733-341.333 273.067-341.333 503.467 0 187.733 153.6 341.333 341.333 341.333s341.333-153.6 341.333-341.333c0-230.4-260.267-443.733-341.333-503.467zM512 682.667c-93.867 0-170.667-76.8-170.667-170.667s76.8-170.667 170.667-170.667c93.867 0 170.667 76.8 170.667 170.667s-76.8 170.667-170.667 170.667zM512 426.667c-46.933 0-85.333 38.4-85.333 85.333s38.4 85.333 85.333 85.333c46.933 0 85.333-38.4 85.333-85.333s-38.4-85.333-85.333-85.333z" />
<glyph unicode="&#xe906;" glyph-name="maximize-2" d="M934.4 827.734c-4.267 8.533-12.8 17.067-21.333 21.333-4.267 4.267-12.8 4.267-17.067 4.267h-256c-25.6 0-42.667-17.067-42.667-42.667s17.067-42.667 42.667-42.667h153.6l-226.133-226.133c-17.067-17.067-17.067-42.667 0-59.733 8.533-8.533 21.333-12.8 29.867-12.8s21.333 4.267 29.867 12.8l226.133 226.133v-153.6c0-25.6 17.067-42.667 42.667-42.667s42.667 17.067 42.667 42.667v256c0 4.267 0 12.8-4.267 17.067zM396.8 371.2l-226.133-226.133v153.6c0 25.6-17.067 42.667-42.667 42.667s-42.667-17.067-42.667-42.667v-256c0-4.267 0-12.8 4.267-17.067 4.267-8.533 12.8-17.067 21.333-21.333 4.267-4.267 12.8-4.267 17.067-4.267h256c25.6 0 42.667 17.067 42.667 42.667s-17.067 42.667-42.667 42.667h-153.6l226.133 226.133c17.067 17.067 17.067 42.667 0 59.733s-42.667 17.067-59.733 0z" />
<glyph unicode="&#xe907;" glyph-name="menu" d="M896 469.334h-768c-25.6 0-42.667-17.067-42.667-42.667s17.067-42.667 42.667-42.667h768c25.6 0 42.667 17.067 42.667 42.667s-17.067 42.667-42.667 42.667zM128 640h768c25.6 0 42.667 17.067 42.667 42.667s-17.067 42.667-42.667 42.667h-768c-25.6 0-42.667-17.067-42.667-42.667s17.067-42.667 42.667-42.667zM896 213.334h-768c-25.6 0-42.667-17.067-42.667-42.667s17.067-42.667 42.667-42.667h768c25.6 0 42.667 17.067 42.667 42.667s-17.067 42.667-42.667 42.667z" />
<glyph unicode="&#xe908;" glyph-name="moon" d="M917.333 430.934c-12.8 8.533-34.133 8.533-46.933-4.267-89.6-68.267-213.333-68.267-302.933 0-115.2 85.333-140.8 243.2-55.467 358.4 8.533 12.8 12.8 29.867 4.267 46.933-8.533 12.8-25.6 21.333-42.667 21.333-204.8-17.067-366.933-179.2-384-384-21.333-234.667 149.333-443.733 384-465.067 12.8 0 25.6 0 38.4 0 98.133 0 196.267 34.133 273.067 98.133 89.6 72.533 140.8 174.933 153.6 290.133 0 12.8-8.533 29.867-21.333 38.4zM733.867 166.4c-68.267-59.733-157.867-85.333-247.467-76.8-187.733 17.067-324.267 183.467-307.2 371.2 12.8 132.267 102.4 247.467 221.867 290.133-51.2-136.533-4.267-298.667 119.467-392.533 93.867-68.267 213.333-85.333 320-46.933-25.6-55.467-59.733-106.667-106.667-145.067z" />
<glyph unicode="&#xe909;" glyph-name="more-horizontal" d="M597.333 426.667c0-47.128-38.205-85.333-85.333-85.333s-85.333 38.205-85.333 85.333c0 47.128 38.205 85.333 85.333 85.333s85.333-38.205 85.333-85.333zM896 426.667c0-47.128-38.205-85.333-85.333-85.333s-85.333 38.205-85.333 85.333c0 47.128 38.205 85.333 85.333 85.333s85.333-38.205 85.333-85.333zM298.667 426.667c0-47.128-38.205-85.333-85.333-85.333s-85.333 38.205-85.333 85.333c0 47.128 38.205 85.333 85.333 85.333s85.333-38.205 85.333-85.333z" />
<glyph unicode="&#xe90a;" glyph-name="more-vertical" d="M597.333 426.667c0-47.128-38.205-85.333-85.333-85.333s-85.333 38.205-85.333 85.333c0 47.128 38.205 85.333 85.333 85.333s85.333-38.205 85.333-85.333zM597.333 725.334c0-47.128-38.205-85.333-85.333-85.333s-85.333 38.205-85.333 85.333c0 47.128 38.205 85.333 85.333 85.333s85.333-38.205 85.333-85.333zM597.333 128c0-47.128-38.205-85.333-85.333-85.333s-85.333 38.205-85.333 85.333c0 47.128 38.205 85.333 85.333 85.333s85.333-38.205 85.333-85.333z" />
<glyph unicode="&#xe90b;" glyph-name="search" d="M925.867 72.534l-157.867 157.867c51.2 64 85.333 149.333 85.333 238.933 0 213.333-170.667 384-384 384s-384-170.667-384-384c0-213.333 170.667-384 384-384 89.6 0 174.933 29.867 238.933 85.333l157.867-157.867c8.533-8.533 21.333-12.8 29.867-12.8s21.333 4.267 29.867 12.8c17.067 17.067 17.067 42.667 0 59.733zM170.667 469.334c0 166.4 132.267 298.667 298.667 298.667s298.667-132.267 298.667-298.667c0-81.067-34.133-157.867-85.333-209.067 0 0 0 0 0 0s0 0 0 0c-55.467-55.467-128-85.333-209.067-85.333-170.667-4.267-302.933 128-302.933 294.4z" />
<glyph unicode="&#xe90c;" glyph-name="settings" d="M512 597.334c-93.867 0-170.667-76.8-170.667-170.667s76.8-170.667 170.667-170.667c93.867 0 170.667 76.8 170.667 170.667s-76.8 170.667-170.667 170.667zM512 341.334c-46.933 0-85.333 38.4-85.333 85.333s38.4 85.333 85.333 85.333c46.933 0 85.333-38.4 85.333-85.333s-38.4-85.333-85.333-85.333zM866.133 281.6c4.267 8.533 12.8 17.067 29.867 17.067 72.533 0 128 55.467 128 128s-55.467 128-128 128h-8.533c-8.533 0-17.067 4.267-21.333 12.8 0 4.267 0 4.267-4.267 8.533-4.267 8.533-4.267 21.333 8.533 34.133 51.2 51.2 51.2 132.267 0 179.2v0c0 0 0 0 0 0-25.6 25.6-55.467 38.4-89.6 38.4 0 0 0 0 0 0-34.133 0-68.267-12.8-93.867-38.4-8.533-8.533-21.333-8.533-29.867-4.267-8.533 0-17.067 12.8-17.067 25.6 0 72.533-55.467 128-128 128s-128-55.467-128-128v-8.533c0-8.533-4.267-17.067-12.8-21.333-4.267 0-4.267 0-8.533-4.267-8.533-4.267-21.333 0-34.133 8.533-51.2 51.2-132.267 51.2-179.2 0-51.2-51.2-51.2-132.267 4.267-183.467 8.533-8.533 8.533-21.333 4.267-34.133-4.267-8.533-17.067-17.067-29.867-17.067-72.533 0-128-55.467-128-128s55.467-128 128-128h8.533c12.8 0 21.333-8.533 25.6-17.067s4.267-21.333-8.533-34.133c-25.6-25.6-38.4-55.467-38.4-89.6s12.8-64 38.4-89.6c0 0 0 0 0 0 51.2-51.2 132.267-51.2 183.467 4.267 8.533 8.533 21.333 8.533 34.133 4.267s17.067-12.8 17.067-29.867c0-72.533 55.467-128 128-128s128 55.467 128 128v8.533c0 12.8 8.533 21.333 17.067 25.6s21.333 4.267 34.133-8.533c51.2-51.2 132.267-51.2 179.2 0 51.2 51.2 51.2 132.267-4.267 183.467-4.267 8.533-8.533 21.333-4.267 29.867 0 0 0 0 0 0zM789.333 315.734c-17.067-42.667-8.533-89.6 25.6-128 8.533-8.533 12.8-17.067 12.8-29.867s-4.267-21.333-12.8-29.867c-8.533-8.533-17.067-12.8-29.867-12.8 0 0 0 0 0 0-12.8 0-21.333 4.267-34.133 17.067-34.133 34.133-81.067 42.667-123.733 21.333-42.667-17.067-68.267-59.733-68.267-102.4v-8.533c0-25.6-17.067-42.667-42.667-42.667s-42.667 17.067-42.667 42.667c0 0 0 4.267 0 4.267 0 46.933-29.867 85.333-72.533 102.4-12.8 8.533-29.867 8.533-46.933 8.533-29.867 0-59.733-12.8-81.067-34.133-17.067-17.067-42.667-17.067-59.733 0 0 0 0 0 0 0v0c-8.533 8.533-12.8 17.067-12.8 29.867s4.267 21.333 17.067 34.133c34.133 34.133 42.667 81.067 21.333 123.733-17.067 42.667-59.733 68.267-102.4 68.267h-8.533c-25.6 0-42.667 17.067-42.667 42.667s17.067 42.667 42.667 42.667c0 0 4.267 0 4.267 0 46.933 0 85.333 29.867 102.4 72.533s8.533 89.6-25.6 128c-17.067 17.067-17.067 42.667 0 59.733s42.667 17.067 64-4.267c29.867-29.867 76.8-38.4 115.2-25.6 4.267 0 8.533 0 12.8 4.267 42.667 17.067 68.267 59.733 68.267 102.4v8.533c0 25.6 17.067 42.667 42.667 42.667s42.667-17.067 42.667-46.933c0-46.933 25.6-85.333 68.267-102.4s89.6-8.533 128 25.6c8.533 8.533 17.067 12.8 29.867 12.8v0c12.8 0 21.333-4.267 29.867-12.8 0 0 0 0 0 0 17.067-17.067 17.067-42.667-4.267-64-29.867-29.867-38.4-76.8-25.6-115.2 0-4.267 0-8.533 4.267-12.8 17.067-42.667 59.733-68.267 102.4-68.267h8.533c25.6 0 42.667-17.067 42.667-42.667s-17.067-42.667-46.933-42.667c-42.667 0-85.333-25.6-102.4-68.267z" />
<glyph unicode="&#xe90d;" glyph-name="star" d="M981.333 554.667c-4.267 17.067-17.067 25.6-34.133 29.867l-273.067 38.4-123.733 247.467c-12.8 29.867-64 29.867-76.8 0l-123.733-243.2-268.8-42.667c-17.067 0-29.867-12.8-38.4-29.867-4.267-17.067 0-34.133 12.8-42.667l196.267-192-46.933-273.067c-4.267-17.067 4.267-34.133 17.067-42.667s29.867-12.8 46.933-4.267l243.2 128 243.2-128c8.533 0 12.8 0 21.333 0s17.067 4.267 25.6 8.533c12.8 8.533 21.333 25.6 17.067 42.667l-46.933 273.067 196.267 192c12.8 8.533 17.067 25.6 12.8 38.4zM695.467 366.934c-8.533-12.8-12.8-25.6-12.8-38.4l34.133-209.067-187.733 98.133c-12.8 8.533-25.6 8.533-38.4 0l-187.733-98.133 38.4 209.067c0 12.8-4.267 25.6-12.8 38.4l-153.6 145.067 209.067 29.867c12.8 0 25.6 12.8 34.133 21.333l93.867 192 93.867-187.733c4.267-12.8 17.067-21.333 34.133-21.333l209.067-29.867-153.6-149.333z" />
<glyph unicode="&#xe90e;" glyph-name="sun" d="M512 682.667c-140.8 0-256-115.2-256-256s115.2-256 256-256 256 115.2 256 256-115.2 256-256 256zM512 256c-93.867 0-170.667 76.8-170.667 170.667s76.8 170.667 170.667 170.667c93.867 0 170.667-76.8 170.667-170.667s-76.8-170.667-170.667-170.667zM512 768c25.6 0 42.667 17.067 42.667 42.667v85.333c0 25.6-17.067 42.667-42.667 42.667s-42.667-17.067-42.667-42.667v-85.333c0-25.6 17.067-42.667 42.667-42.667zM512 85.334c-25.6 0-42.667-17.067-42.667-42.667v-85.333c0-25.6 17.067-42.667 42.667-42.667s42.667 17.067 42.667 42.667v85.333c0 25.6-17.067 42.667-42.667 42.667zM209.067 669.867c8.533-8.533 21.333-12.8 29.867-12.8s21.333 4.267 29.867 12.8c17.067 17.067 17.067 42.667 0 59.733l-59.733 59.733c-17.067 17.067-42.667 17.067-59.733 0s-17.067-42.667 0-59.733l59.733-59.733zM814.933 183.467c-17.067 17.067-42.667 17.067-59.733 0s-17.067-42.667 0-59.733l59.733-59.733c8.533-8.533 21.333-12.8 29.867-12.8s21.333 4.267 29.867 12.8c17.067 17.067 17.067 42.667 0 59.733l-59.733 59.733zM170.667 426.667c0 25.6-17.067 42.667-42.667 42.667h-85.333c-25.6 0-42.667-17.067-42.667-42.667s17.067-42.667 42.667-42.667h85.333c25.6 0 42.667 17.067 42.667 42.667zM981.333 469.334h-85.333c-25.6 0-42.667-17.067-42.667-42.667s17.067-42.667 42.667-42.667h85.333c25.6 0 42.667 17.067 42.667 42.667s-17.067 42.667-42.667 42.667zM209.067 183.467l-59.733-59.733c-17.067-17.067-17.067-42.667 0-59.733 8.533-8.533 21.333-12.8 29.867-12.8s21.333 4.267 29.867 12.8l59.733 59.733c17.067 17.067 17.067 42.667 0 59.733s-42.667 17.067-59.733 0zM785.067 657.067c12.8 0 21.333 4.267 29.867 12.8l59.733 59.733c17.067 17.067 17.067 42.667 0 59.733s-42.667 17.067-59.733 0l-59.733-59.733c-17.067-17.067-17.067-42.667 0-59.733 4.267-8.533 17.067-12.8 29.867-12.8z" />
<glyph unicode="&#xe90f;" glyph-name="tag" d="M908.8 516.267l-366.933 366.933c-8.533 8.533-17.067 12.8-29.867 12.8h-426.667c-25.6 0-42.667-17.067-42.667-42.667v-426.667c0-12.8 4.267-21.333 12.8-29.867l366.933-366.933c25.6-25.6 59.733-38.4 89.6-38.4 34.133 0 64 12.8 89.6 38.4l307.2 307.2c0 0 0 0 0 0 51.2 51.2 51.2 128 0 179.2zM849.067 396.8l-307.2-307.2c-17.067-17.067-42.667-17.067-59.733 0l-354.133 354.133v366.933h366.933l354.133-354.133c17.067-17.067 17.067-42.667 0-59.733zM268.8 669.867c-8.533-8.533-12.8-17.067-12.8-29.867s4.267-21.333 12.8-29.867c8.533-8.533 17.067-12.8 29.867-12.8s21.333 4.267 29.867 12.8c8.533 8.533 12.8 17.067 12.8 29.867s-4.267 21.333-12.8 29.867c-17.067 17.067-42.667 17.067-59.733 0z" />
<glyph unicode="&#xe910;" glyph-name="terminal" d="M456.533 499.2l-256 256c-17.067 17.067-42.667 17.067-59.733 0s-17.067-42.667 0-59.733l226.133-226.133-226.133-226.133c-17.067-17.067-17.067-42.667 0-59.733 8.533-8.533 17.067-12.8 29.867-12.8s21.333 4.267 29.867 12.8l256 256c17.067 17.067 17.067 42.667 0 59.733zM853.333 170.667h-341.333c-25.6 0-42.667-17.067-42.667-42.667s17.067-42.667 42.667-42.667h341.333c25.6 0 42.667 17.067 42.667 42.667s-17.067 42.667-42.667 42.667z" />
<glyph unicode="&#xe911;" glyph-name="trash-2" d="M896 725.334h-170.667v42.667c0 72.533-55.467 128-128 128h-170.667c-72.533 0-128-55.467-128-128v-42.667h-170.667c-25.6 0-42.667-17.067-42.667-42.667s17.067-42.667 42.667-42.667h42.667v-554.667c0-72.533 55.467-128 128-128h426.667c72.533 0 128 55.467 128 128v554.667h42.667c25.6 0 42.667 17.067 42.667 42.667s-17.067 42.667-42.667 42.667zM384 768c0 25.6 17.067 42.667 42.667 42.667h170.667c25.6 0 42.667-17.067 42.667-42.667v-42.667h-256v42.667zM768 85.334c0-25.6-17.067-42.667-42.667-42.667h-426.667c-25.6 0-42.667 17.067-42.667 42.667v554.667h512v-554.667zM426.667 512c-25.6 0-42.667-17.067-42.667-42.667v-256c0-25.6 17.067-42.667 42.667-42.667s42.667 17.067 42.667 42.667v256c0 25.6-17.067 42.667-42.667 42.667zM597.333 512c-25.6 0-42.667-17.067-42.667-42.667v-256c0-25.6 17.067-42.667 42.667-42.667s42.667 17.067 42.667 42.667v256c0 25.6-17.067 42.667-42.667 42.667z" />
<glyph unicode="&#xe912;" glyph-name="x" d="M571.733 426.667l226.133 226.133c17.067 17.067 17.067 42.667 0 59.733s-42.667 17.067-59.733 0l-226.133-226.133-226.133 226.133c-17.067 17.067-42.667 17.067-59.733 0s-17.067-42.667 0-59.733l226.133-226.133-226.133-226.133c-17.067-17.067-17.067-42.667 0-59.733 8.533-8.533 17.067-12.8 29.867-12.8s21.333 4.267 29.867 12.8l226.133 226.133 226.133-226.133c8.533-8.533 21.333-12.8 29.867-12.8s21.333 4.267 29.867 12.8c17.067 17.067 17.067 42.667 0 59.733l-226.133 226.133z" />
<glyph unicode="&#xe913;" glyph-name="x-circle" d="M512 896c-260.267 0-469.333-209.067-469.333-469.333s209.067-469.333 469.333-469.333 469.333 209.067 469.333 469.333-209.067 469.333-469.333 469.333zM512 42.667c-213.333 0-384 170.667-384 384s170.667 384 384 384c213.333 0 384-170.667 384-384s-170.667-384-384-384zM669.867 584.534c-17.067 17.067-42.667 17.067-59.733 0l-98.133-98.133-98.133 98.133c-17.067 17.067-42.667 17.067-59.733 0s-17.067-42.667 0-59.733l98.133-98.133-98.133-98.133c-17.067-17.067-17.067-42.667 0-59.733 8.533-8.533 17.067-12.8 29.867-12.8s21.333 4.267 29.867 12.8l98.133 98.133 98.133-98.133c8.533-8.533 21.333-12.8 29.867-12.8s21.333 4.267 29.867 12.8c17.067 17.067 17.067 42.667 0 59.733l-98.133 98.133 98.133 98.133c17.067 17.067 17.067 42.667 0 59.733z" />
<glyph unicode="&#xe914;" glyph-name="align-justify" d="M896 554.667h-768c-25.6 0-42.667-17.067-42.667-42.667s17.067-42.667 42.667-42.667h768c25.6 0 42.667 17.067 42.667 42.667s-17.067 42.667-42.667 42.667zM128 640h768c25.6 0 42.667 17.067 42.667 42.667s-17.067 42.667-42.667 42.667h-768c-25.6 0-42.667-17.067-42.667-42.667s17.067-42.667 42.667-42.667zM896 384h-768c-25.6 0-42.667-17.067-42.667-42.667s17.067-42.667 42.667-42.667h768c25.6 0 42.667 17.067 42.667 42.667s-17.067 42.667-42.667 42.667zM896 213.334h-768c-25.6 0-42.667-17.067-42.667-42.667s17.067-42.667 42.667-42.667h768c25.6 0 42.667 17.067 42.667 42.667s-17.067 42.667-42.667 42.667z" />
<glyph unicode="&#xe915;" glyph-name="check" d="M883.2 712.534c-17.067 17.067-42.667 17.067-59.733 0l-439.467-439.467-183.467 183.467c-17.067 17.067-42.667 17.067-59.733 0s-17.067-42.667 0-59.733l213.333-213.333c8.533-8.533 17.067-12.8 29.867-12.8s21.333 4.267 29.867 12.8l469.333 469.333c17.067 17.067 17.067 42.667 0 59.733z" />
<glyph unicode="&#xe916;" glyph-name="chevron-down" d="M797.867 584.534c-17.067 17.067-42.667 17.067-59.733 0l-226.133-226.133-226.133 226.133c-17.067 17.067-42.667 17.067-59.733 0s-17.067-42.667 0-59.733l256-256c8.533-8.533 21.333-12.8 29.867-12.8s21.333 4.267 29.867 12.8l256 256c17.067 17.067 17.067 42.667 0 59.733z" />
<glyph unicode="&#xe917;" glyph-name="chevron-left" d="M443.733 426.667l226.133 226.133c17.067 17.067 17.067 42.667 0 59.733s-42.667 17.067-59.733 0l-256-256c-17.067-17.067-17.067-42.667 0-59.733l256-256c8.533-8.533 21.333-12.8 29.867-12.8s21.333 4.267 29.867 12.8c17.067 17.067 17.067 42.667 0 59.733l-226.133 226.133z" />
<glyph unicode="&#xe918;" glyph-name="chevron-right" d="M669.867 456.534l-256 256c-17.067 17.067-42.667 17.067-59.733 0s-17.067-42.667 0-59.733l226.133-226.133-226.133-226.133c-17.067-17.067-17.067-42.667 0-59.733 8.533-8.533 17.067-12.8 29.867-12.8s21.333 4.267 29.867 12.8l256 256c17.067 17.067 17.067 42.667 0 59.733z" />
<glyph unicode="&#xe919;" glyph-name="chevron-up" d="M797.867 328.534l-256 256c-17.067 17.067-42.667 17.067-59.733 0l-256-256c-17.067-17.067-17.067-42.667 0-59.733s42.667-17.067 59.733 0l226.133 226.133 226.133-226.133c8.533-8.533 21.333-12.8 29.867-12.8s21.333 4.267 29.867 12.8c17.067 17.067 17.067 42.667 0 59.733z" />
<glyph unicode="&#xe91a;" glyph-name="chevrons-down" d="M695.467 413.867l-183.467-183.467-183.467 183.467c-17.067 17.067-42.667 17.067-59.733 0s-17.067-42.667 0-59.733l213.333-213.333c8.533-8.533 21.333-12.8 29.867-12.8s21.333 4.267 29.867 12.8l213.333 213.333c17.067 17.067 17.067 42.667 0 59.733s-42.667 17.067-59.733 0zM482.133 439.467c8.533-8.533 21.333-12.8 29.867-12.8s21.333 4.267 29.867 12.8l213.333 213.333c17.067 17.067 17.067 42.667 0 59.733s-42.667 17.067-59.733 0l-183.467-183.467-183.467 183.467c-17.067 17.067-42.667 17.067-59.733 0s-17.067-42.667 0-59.733l213.333-213.333z" />
<glyph unicode="&#xe91b;" glyph-name="chevrons-left" d="M315.733 426.667l183.467 183.467c17.067 17.067 17.067 42.667 0 59.733s-42.667 17.067-59.733 0l-213.333-213.333c-17.067-17.067-17.067-42.667 0-59.733l213.333-213.333c8.533-8.533 21.333-12.8 29.867-12.8s21.333 4.267 29.867 12.8c17.067 17.067 17.067 42.667 0 59.733l-183.467 183.467zM614.4 426.667l183.467 183.467c17.067 17.067 17.067 42.667 0 59.733s-42.667 17.067-59.733 0l-213.333-213.333c-17.067-17.067-17.067-42.667 0-59.733l213.333-213.333c8.533-8.533 21.333-12.8 29.867-12.8s21.333 4.267 29.867 12.8c17.067 17.067 17.067 42.667 0 59.733l-183.467 183.467z" />
<glyph unicode="&#xe91c;" glyph-name="chevrons-right" d="M797.867 456.534l-213.333 213.333c-17.067 17.067-42.667 17.067-59.733 0s-17.067-42.667 0-59.733l183.467-183.467-183.467-183.467c-17.067-17.067-17.067-42.667 0-59.733 8.533-8.533 21.333-12.8 29.867-12.8s21.333 4.267 29.867 12.8l213.333 213.333c17.067 17.067 17.067 42.667 0 59.733zM499.2 456.534l-213.333 213.333c-17.067 17.067-42.667 17.067-59.733 0s-17.067-42.667 0-59.733l183.467-183.467-183.467-183.467c-17.067-17.067-17.067-42.667 0-59.733 8.533-8.533 17.067-12.8 29.867-12.8s21.333 4.267 29.867 12.8l213.333 213.333c17.067 17.067 17.067 42.667 0 59.733z" />
<glyph unicode="&#xe91d;" glyph-name="chevrons-up" d="M328.533 439.467l183.467 183.467 183.467-183.467c8.533-8.533 21.333-12.8 29.867-12.8s21.333 4.267 29.867 12.8c17.067 17.067 17.067 42.667 0 59.733l-213.333 213.333c-17.067 17.067-42.667 17.067-59.733 0l-213.333-213.333c-17.067-17.067-17.067-42.667 0-59.733s42.667-17.067 59.733 0zM541.867 413.867c-17.067 17.067-42.667 17.067-59.733 0l-213.333-213.333c-17.067-17.067-17.067-42.667 0-59.733s42.667-17.067 59.733 0l183.467 183.467 183.467-183.467c8.533-8.533 21.333-12.8 29.867-12.8s21.333 4.267 29.867 12.8c17.067 17.067 17.067 42.667 0 59.733l-213.333 213.333z" />
<glyph unicode="&#xe937;" glyph-name="alert-circle" d="M512 896c-260.267 0-469.333-209.067-469.333-469.333s209.067-469.333 469.333-469.333 469.333 209.067 469.333 469.333-209.067 469.333-469.333 469.333zM512 42.667c-213.333 0-384 170.667-384 384s170.667 384 384 384c213.333 0 384-170.667 384-384s-170.667-384-384-384zM512 640c-25.6 0-42.667-17.067-42.667-42.667v-170.667c0-25.6 17.067-42.667 42.667-42.667s42.667 17.067 42.667 42.667v170.667c0 25.6-17.067 42.667-42.667 42.667zM482.133 285.867c-8.533-8.533-12.8-17.067-12.8-29.867s4.267-21.333 12.8-29.867c8.533-8.533 17.067-12.8 29.867-12.8s21.333 4.267 29.867 12.8c8.533 8.533 12.8 21.333 12.8 29.867s-4.267 21.333-12.8 29.867c-17.067 17.067-42.667 17.067-59.733 0z" />
<glyph unicode="&#xe938;" glyph-name="alert-triangle" d="M981.333 192l-358.4 605.867c-17.067 29.867-46.933 51.2-81.067 59.733s-68.267 4.267-98.133-12.8c-17.067-8.533-34.133-25.6-42.667-42.667 0 0 0 0 0 0l-358.4-610.133c-34.133-59.733-12.8-140.8 46.933-174.933 17.067-12.8 38.4-17.067 59.733-17.067h725.333c34.133 0 68.267 12.8 89.6 38.4 25.6 25.6 38.4 55.467 38.4 89.6-4.267 21.333-8.533 46.933-21.333 64zM904.533 98.134c-8.533-8.533-21.333-12.8-29.867-12.8h-725.333c-8.533 0-12.8 0-21.333 4.267-21.333 12.8-25.6 38.4-17.067 59.733l362.667 601.6c4.267 4.267 8.533 12.8 12.8 12.8 21.333 12.8 46.933 4.267 59.733-12.8l362.667-601.6c4.267-4.267 4.267-12.8 4.267-21.333 4.267-12.8-4.267-21.333-8.533-29.867zM512 597.334c-25.6 0-42.667-17.067-42.667-42.667v-170.667c0-25.6 17.067-42.667 42.667-42.667s42.667 17.067 42.667 42.667v170.667c0 25.6-17.067 42.667-42.667 42.667zM482.133 243.2c-8.533-8.533-12.8-17.067-12.8-29.867s4.267-21.333 12.8-29.867c8.533-8.533 17.067-12.8 29.867-12.8s21.333 4.267 29.867 12.8c8.533 8.533 12.8 21.333 12.8 29.867s-4.267 21.333-12.8 29.867c-17.067 17.067-42.667 17.067-59.733 0z" />
<glyph unicode="&#xe939;" glyph-name="bell" d="M605.867 81.067c-21.333 12.8-46.933 4.267-59.733-17.067s-38.4-25.6-59.733-17.067c-8.533 4.267-12.8 8.533-17.067 17.067-12.8 21.333-38.4 25.6-59.733 17.067-21.333-12.8-25.6-38.4-17.067-59.733 12.8-21.333 25.6-34.133 46.933-46.933s42.667-17.067 64-17.067c42.667 0 85.333 21.333 110.933 64 21.333 21.333 12.8 46.933-8.533 59.733zM938.667 256c-46.933 0-85.333 38.4-85.333 85.333v213.333c0 187.733-153.6 341.333-341.333 341.333s-341.333-153.6-341.333-341.333v-213.333c0-46.933-38.4-85.333-85.333-85.333-25.6 0-42.667-17.067-42.667-42.667s17.067-42.667 42.667-42.667h853.333c25.6 0 42.667 17.067 42.667 42.667s-17.067 42.667-42.667 42.667zM234.667 256c12.8 25.6 21.333 55.467 21.333 85.333v213.333c0 140.8 115.2 256 256 256s256-115.2 256-256v-213.333c0-29.867 8.533-59.733 21.333-85.333h-554.667z" />
<glyph unicode="&#xe93a;" glyph-name="code" d="M968.533 456.534l-256 256c-17.067 17.067-42.667 17.067-59.733 0s-17.067-42.667 0-59.733l226.133-226.133-226.133-226.133c-17.067-17.067-17.067-42.667 0-59.733 8.533-8.533 21.333-12.8 29.867-12.8s21.333 4.267 29.867 12.8l256 256c17.067 17.067 17.067 42.667 0 59.733zM371.2 712.534c-17.067 17.067-42.667 17.067-59.733 0l-256-256c-17.067-17.067-17.067-42.667 0-59.733l256-256c8.533-8.533 17.067-12.8 29.867-12.8s21.333 4.267 29.867 12.8c17.067 17.067 17.067 42.667 0 59.733l-226.133 226.133 226.133 226.133c17.067 17.067 17.067 42.667 0 59.733z" />
<glyph unicode="&#xe93b;" glyph-name="edit-2" d="M925.867 627.2l-213.333 213.333c-17.067 17.067-42.667 17.067-59.733 0l-554.667-554.667c-8.533-8.533-12.8-17.067-12.8-29.867v-213.333c0-25.6 17.067-42.667 42.667-42.667h213.333c12.8 0 21.333 4.267 29.867 12.8l554.667 554.667c17.067 17.067 17.067 42.667 0 59.733zM324.267 85.334h-153.6v153.6l512 512 153.6-153.6-512-512z" />
<glyph unicode="&#xe93c;" glyph-name="eye" d="M1019.733 443.734c-8.533 17.067-187.733 366.933-507.733 366.933s-499.2-349.867-507.733-366.933c-4.267-12.8-4.267-25.6 0-38.4 8.533-12.8 187.733-362.667 507.733-362.667s499.2 349.867 507.733 366.933c4.267 8.533 4.267 25.6 0 34.133zM512 128c-230.4 0-379.733 230.4-422.4 298.667 38.4 68.267 192 298.667 422.4 298.667s379.733-230.4 422.4-298.667c-42.667-68.267-192-298.667-422.4-298.667zM512 597.334c-93.867 0-170.667-76.8-170.667-170.667s76.8-170.667 170.667-170.667c93.867 0 170.667 76.8 170.667 170.667s-76.8 170.667-170.667 170.667zM512 341.334c-46.933 0-85.333 38.4-85.333 85.333s38.4 85.333 85.333 85.333c46.933 0 85.333-38.4 85.333-85.333s-38.4-85.333-85.333-85.333z" />
<glyph unicode="&#xe93d;" glyph-name="folder" d="M853.333 725.334h-362.667l-72.533 110.933c-8.533 8.533-21.333 17.067-34.133 17.067h-213.333c-72.533 0-128-55.467-128-128v-597.333c0-72.533 55.467-128 128-128h682.667c72.533 0 128 55.467 128 128v469.333c0 72.533-55.467 128-128 128zM896 128c0-25.6-17.067-42.667-42.667-42.667h-682.667c-25.6 0-42.667 17.067-42.667 42.667v597.333c0 25.6 17.067 42.667 42.667 42.667h192l72.533-110.933c8.533-8.533 21.333-17.067 34.133-17.067h384c25.6 0 42.667-17.067 42.667-42.667v-469.333z" />
<glyph unicode="&#xe93e;" glyph-name="layers" d="M68.267 601.6l426.667-213.333c4.267-4.267 8.533-4.267 17.067-4.267s12.8 0 17.067 4.267l426.667 213.333c17.067 8.533 25.6 21.333 25.6 38.4s-8.533 29.867-25.6 38.4l-426.667 213.333c-12.8 4.267-25.6 4.267-38.4 0l-426.667-213.333c-12.8-8.533-21.333-21.333-21.333-38.4s8.533-29.867 25.6-38.4zM512 806.4l332.8-166.4-332.8-166.4-332.8 166.4 332.8 166.4zM921.6 251.734l-409.6-204.8-409.6 204.8c-21.333 8.533-46.933 0-55.467-17.067s0-46.933 17.067-55.467l426.667-213.333c8.533-8.533 12.8-8.533 21.333-8.533s12.8 0 17.067 4.267l426.667 213.333c21.333 8.533 29.867 34.133 17.067 55.467-8.533 21.333-34.133 29.867-51.2 21.333zM921.6 465.067l-409.6-204.8-409.6 204.8c-21.333 8.533-46.933 0-55.467-17.067-8.533-21.333 0-46.933 17.067-55.467l426.667-213.333c8.533-8.533 12.8-8.533 21.333-8.533s12.8 0 17.067 4.267l426.667 213.333c21.333 8.533 29.867 34.133 17.067 55.467-8.533 21.333-34.133 29.867-51.2 21.333z" />
<glyph unicode="&#xe93f;" glyph-name="link" d="M900.267 819.2c-98.133 98.133-256 98.133-354.133 0l-76.8-72.533c-17.067-17.067-17.067-42.667 0-59.733s42.667-17.067 59.733 0l72.533 72.533c68.267 64 170.667 64 238.933 0s68.267-174.933 4.267-238.933l-128-128c-4.267-4.267-12.8-12.8-17.067-17.067-76.8-55.467-183.467-42.667-238.933 34.133-12.8 17.067-42.667 21.333-59.733 8.533s-21.333-42.667-8.533-59.733c51.2-68.267 128-102.4 204.8-102.4 51.2 0 106.667 17.067 153.6 51.2 8.533 8.533 17.067 17.067 29.867 25.6l128 128c98.133 98.133 93.867 264.533-8.533 358.4zM490.667 166.4l-72.533-72.533c-68.267-64-170.667-64-238.933 0s-68.267 174.933-4.267 238.933l128 128c4.267 4.267 12.8 12.8 17.067 17.067 38.4 25.6 81.067 38.4 128 34.133 46.933-8.533 85.333-29.867 110.933-68.267 12.8-17.067 42.667-21.333 59.733-8.533s21.333 42.667 8.533 59.733c-42.667 55.467-102.4 89.6-166.4 98.133-64 12.8-132.267-4.267-187.733-46.933-8.533-8.533-17.067-17.067-25.6-25.6l-128-128c-98.133-102.4-93.867-264.533 4.267-362.667 51.2-46.933 115.2-72.533 179.2-72.533s128 25.6 179.2 72.533l72.533 72.533c17.067 17.067 17.067 42.667 0 59.733s-46.933 21.333-64 4.267z" />
<glyph unicode="&#xe940;" glyph-name="paperclip" d="M942.933 499.2c-17.067 17.067-42.667 17.067-59.733 0l-392.533-392.533c-85.333-85.333-217.6-85.333-302.933 0s-85.333 217.6 0 302.933l392.533 392.533c46.933 46.933 132.267 46.933 179.2 0 51.2-51.2 51.2-132.267 0-179.2l-392.533-392.533c-17.067-17.067-42.667-17.067-59.733 0-4.267 4.267-8.533 12.8-8.533 25.6s4.267 21.333 12.8 29.867l362.667 362.667c17.067 17.067 17.067 42.667 0 59.733s-42.667 17.067-59.733 0l-362.667-362.667c-25.6-21.333-38.4-55.467-38.4-89.6s12.8-68.267 38.4-89.6c51.2-51.2 132.267-51.2 179.2 0l392.533 392.533c85.333 85.333 85.333 217.6 0 302.933-38.4 38.4-93.867 64-149.333 64s-110.933-21.333-149.333-64l-392.533-392.533c-115.2-115.2-115.2-307.2 0-422.4 59.733-59.733 136.533-85.333 213.333-85.333s153.6 29.867 213.333 85.333l392.533 392.533c8.533 12.8 8.533 42.667-8.533 59.733z" />
<glyph unicode="&#xe941;" glyph-name="refresh-cw" d="M887.467 337.067c-21.333 8.533-46.933-4.267-55.467-25.6-17.067-46.933-42.667-93.867-81.067-128-59.733-64-149.333-98.133-238.933-98.133 0 0 0 0 0 0-89.6 0-174.933 34.133-243.2 102.4l-119.467 110.933h149.333c25.6 0 42.667 17.067 42.667 42.667s-17.067 42.667-42.667 42.667h-256c0 0 0 0 0 0-4.267 0-8.533 0-8.533-4.267 0 0-4.267 0-4.267 0s-4.267 0-4.267-4.267c-4.267 0-8.533-4.267-8.533-8.533 0 0 0 0 0 0s0-4.267-4.267-4.267c0-4.267-4.267-4.267-4.267-8.533s0-4.267 0-8.533c0 0 0-4.267 0-4.267v-256c0-25.6 17.067-42.667 42.667-42.667s42.667 17.067 42.667 42.667v157.867l123.733-119.467c72.533-81.067 179.2-123.733 294.4-123.733 0 0 0 0 0 0 115.2 0 221.867 42.667 302.933 123.733 42.667 42.667 81.067 98.133 102.4 157.867 4.267 25.6-8.533 51.2-29.867 55.467zM1024 507.734c0 0 0 4.267 0 4.267v256c0 25.6-17.067 42.667-42.667 42.667s-42.667-17.067-42.667-42.667v-157.867l-123.733 119.467c-42.667 42.667-98.133 81.067-157.867 102.4-110.933 34.133-226.133 29.867-328.533-21.333-102.4-46.933-179.2-132.267-217.6-243.2-8.533-21.333 4.267-46.933 25.6-51.2 21.333-8.533 46.933 4.267 55.467 25.6 29.867 85.333 93.867 153.6 174.933 196.267 81.067 38.4 174.933 42.667 260.267 12.8 46.933-17.067 93.867-42.667 128-81.067l119.467-115.2h-149.333c-25.6 0-42.667-17.067-42.667-42.667s17.067-42.667 42.667-42.667h256c4.267 0 12.8 0 17.067 4.267 0 0 0 0 0 0 4.267 4.267 8.533 4.267 12.8 8.533 0 0 0 0 0 0s0 4.267 4.267 4.267c0 4.267 4.267 4.267 4.267 8.533 4.267 4.267 4.267 8.533 4.267 12.8z" />
<glyph unicode="&#xe99b;" glyph-name="bxs-folder" d="M896 725.334h-373.931l-161.664 80.853c-5.888 2.944-12.459 4.48-19.072 4.48h-213.333c-23.552 0-42.667-19.115-42.667-42.667v-682.667c0-23.595 19.115-42.667 42.667-42.667h768c23.595 0 42.667 19.072 42.667 42.667v597.333c0 23.552-19.072 42.667-42.667 42.667z" />
<glyph unicode="&#xe99d;" glyph-name="bxs-folder-open" d="M931.627 450.176c-7.936 11.947-21.291 19.157-35.627 19.157h-640c-17.067 0-32.512-10.155-39.211-25.856l-128-298.667c-5.675-13.184-4.309-28.288 3.584-40.277 7.936-11.989 21.291-19.2 35.627-19.2h640c17.067 0 32.512 10.155 39.211 25.856l128 298.667c5.675 13.184 4.309 28.331-3.584 40.32zM175.147 531.072c7.253 14.464 22.016 23.595 38.187 23.595h640v85.333c0 23.595-19.072 42.667-42.667 42.667h-330.155l-141.952 79.829c-6.4 3.627-13.611 5.504-20.949 5.504h-189.611c-23.595 0-42.667-19.072-42.667-42.667v-373.931l89.813 179.669z" />
<glyph unicode="&#xe9c0;" glyph-name="bxs-message-detail" d="M896 810.667h-768c-23.595 0-42.667-19.072-42.667-42.667v-512c0-23.595 19.072-42.667 42.667-42.667h170.667v-170.667c0-17.237 10.368-32.853 26.325-39.424 5.291-2.219 10.837-3.243 16.341-3.243 11.093 0 22.016 4.352 30.165 12.501l200.832 200.832h323.669c23.595 0 42.667 19.072 42.667 42.667v512c0 23.595-19.072 42.667-42.667 42.667zM512 384h-256v85.333h256v-85.333zM768 554.667h-512v85.333h512v-85.333z" />
<glyph unicode="&#xea08;" glyph-name="bxs-star" d="M292.48 325.76l-77.525-271.36c-4.907-17.152 1.451-35.627 15.872-46.165 14.507-10.539 34.005-10.965 48.853-1.024l232.32 154.837 232.32-154.88c7.168-4.779 15.445-7.168 23.68-7.168 8.832 0 17.664 2.731 25.173 8.192 14.421 10.539 20.779 29.013 15.872 46.165l-77.525 271.36 191.147 152.917c13.141 10.539 18.859 27.776 14.635 44.075s-17.664 28.587-34.304 31.317l-234.539 39.083-118.272 236.587c-14.507 28.928-61.824 28.928-76.331 0l-118.315-236.544-234.539-39.083c-16.64-2.731-30.037-15.061-34.304-31.317s1.493-33.536 14.635-44.075l191.147-152.917z" />
<glyph unicode="&#xea57;" glyph-name="bx-asterisk" d="M469.333 682.667v-182.101l-157.696 91.051-42.667-73.899 157.696-91.051-157.653-91.051 42.667-73.899 157.653 91.051v-182.101h85.333v182.101l157.653-91.051 42.667 73.899-157.653 91.051 157.696 91.051-42.667 73.899-157.696-91.051v182.101z" />
<glyph unicode="&#xea58;" glyph-name="bx-at" d="M512 853.334c-235.264 0-426.667-191.403-426.667-426.667s191.403-426.667 426.667-426.667c62.549 0 126.336 15.829 189.525 47.104l-37.76 76.501c-51.371-25.387-102.443-38.272-151.765-38.272-188.203 0-341.333 153.131-341.333 341.333s153.131 341.333 341.333 341.333 341.333-153.131 341.333-341.333v-42.667c0-29.525-13.355-85.333-64-85.333-59.563 0-63.744 77.611-64 85.333v213.333h-85.333v-1.067c-35.051 27.134-79.591 43.557-127.959 43.733h-0.041c-117.632 0-213.333-95.701-213.333-213.333s95.701-213.333 213.333-213.333c61.867 0 117.248 26.923 156.245 69.163 22.357-37.973 60.075-69.163 121.088-69.163 96.981 0 149.333 87.936 149.333 170.667v42.667c0 235.264-191.403 426.667-426.667 426.667zM512 298.667c-70.571 0-128 57.429-128 128s57.429 128 128 128 128-57.429 128-128-57.429-128-128-128z" />
<glyph unicode="&#xea66;" glyph-name="bx-bell" d="M558.677 849.707l-43.221 3.499c-1.028 0.081-2.226 0.128-3.435 0.128s-2.407-0.046-3.592-0.138l0.157 0.010-45.355-3.712c-166.784-23.979-292.565-169.088-292.565-337.493v-163.755l-40.448-121.429c-1.386-4.023-2.186-8.66-2.186-13.483 0-23.553 19.084-42.648 42.633-42.667h192.002c0-82.347 66.987-149.333 149.333-149.333s149.333 66.987 149.333 149.333h192c0.257-0.006 0.559-0.009 0.863-0.009 23.564 0 42.667 19.103 42.667 42.667 0 7.772-2.078 15.058-5.708 21.334l0.11-0.205-37.931 113.792v163.755c0 168.107-125.525 313.173-294.656 337.707zM512 106.667c-35.883 0-64 28.117-64 64h128c0-35.883-28.117-64-64-64zM229.888 256l23.936 71.851c1.361 4.023 2.156 8.656 2.176 13.473v170.677c0 126.251 94.336 235.051 216.747 252.715l39.296 3.157 37.035-2.901c124.8-18.176 218.923-126.933 218.923-252.971v-170.667c0-4.565 0.768-9.131 2.219-13.483l23.893-71.851h-564.224z" />
<glyph unicode="&#xea6a;" glyph-name="bx-bell-ring" d="M768 351.403v117.931c0 126.123-94.123 234.923-221.611 253.355l-30.933 2.517c-2.304 0.171-4.523 0.171-6.827 0l-33.195-2.688c-125.099-18.048-219.435-126.891-219.435-253.184v-117.931l-38.187-76.331c-6.613-13.227-5.931-28.928 1.877-41.515s21.504-20.224 36.309-20.224h128c0-70.571 57.429-128 128-128s128 57.429 128 128h128c0.299-0.043 0.64-0.043 0.853 0 23.595 0 42.667 19.072 42.667 42.667 0 9.771-3.243 18.731-8.747 25.899l-34.773 69.504zM512 170.667c-23.552 0-42.667 19.115-42.667 42.667h85.333c0-23.552-19.115-42.667-42.667-42.667zM325.035 298.667l11.776 23.595c2.987 5.888 4.523 12.459 4.523 19.072v128c0 84.181 62.891 156.672 143.531 168.363l27.179 2.176 24.747-1.92c83.157-12.075 145.877-84.565 145.877-168.619v-128c0-6.613 1.536-13.184 4.48-19.072l11.819-23.595h-373.931zM225.963 798.294c-140.629-139.648-140.629-240.853-140.629-371.627h42.667l42.667 2.688c0 124.928 0 193.749 115.371 308.352l-60.075 60.587zM798.037 798.294l-60.075-60.587c115.371-114.603 115.371-183.424 115.371-311.040l85.333 2.688c0 128.085 0 229.291-140.629 368.939z" />
<glyph unicode="&#xea73;" glyph-name="bx-bookmark" d="M213.333 853.334c-23.564 0-42.667-19.103-42.667-42.667v0-768c0.008-23.558 19.107-42.653 42.667-42.653 7.786 0 15.084 2.085 21.367 5.728l-0.205-0.11 277.504 158.592 277.504-158.592c6.079-3.555 13.384-5.654 21.18-5.654 7.886 0 15.269 2.148 21.599 5.89l-0.197-0.108c12.795 7.526 21.248 21.226 21.248 36.901 0 0.002 0 0.004 0 0.006v0 768c0 23.564-19.103 42.667-42.667 42.667v0h-597.333zM768 116.224l-234.837 134.187c-6.074 3.5-13.359 5.565-21.125 5.565-7.797 0-15.108-2.081-21.407-5.718l0.207 0.11-234.837-134.144v651.776h512v-651.776z" />
<glyph unicode="&#xea77;" glyph-name="bx-bookmark-star" d="M398.208 341.334l113.792 75.861 113.792-75.861-37.973 132.736 94.848 80.597-113.792 14.208-56.875 113.792-56.875-113.792-113.792-14.208 94.848-80.597zM853.333 42.667v768c0 23.564-19.103 42.667-42.667 42.667v0h-597.333c-23.564 0-42.667-19.103-42.667-42.667v0-768c0.008-23.558 19.107-42.653 42.667-42.653 7.786 0 15.084 2.085 21.367 5.728l-0.205-0.11 277.504 158.549 277.504-158.549c6.079-3.555 13.384-5.654 21.18-5.654 7.886 0 15.269 2.148 21.599 5.89l-0.197-0.108c12.795 7.526 21.248 21.226 21.248 36.901 0 0.002 0 0.004 0 0.006v0zM768 116.182l-234.837 134.187c-6.075 3.549-13.374 5.644-21.163 5.644s-15.088-2.095-21.365-5.753l0.202 0.109-234.837-134.187v651.819h512v-651.819z" />
<glyph unicode="&#xea7e;" glyph-name="bx-bug" d="M844.8 405.334c0 21.845-1.835 43.093-4.523 64h95.829v85.333h-114.987c-16.779 51.503-41.224 96.148-72.418 135.16l0.653-0.845 91.52 91.52-60.331 60.331-92.331-92.288c-51.157 39.125-111.445 62.123-176.213 62.123s-125.056-22.997-176.213-62.123l-92.288 92.288-60.331-60.331 91.52-91.52c-30.541-38.167-54.986-82.811-70.914-131.318l-0.852-2.996h-117.589v-85.333h98.432c-2.731-20.907-4.565-42.155-4.565-64 0-21.973 1.835-43.435 4.608-64.469h-98.475v-85.333h117.717c9.728-29.568 22.187-57.429 37.035-83.115l-99.584-99.584 60.331-60.331 90.368 90.368c58.837-63.744 136.064-102.869 220.8-102.869s161.963 39.125 220.8 102.869l90.368-90.368 60.331 60.331-99.584 99.584c14.891 25.685 27.349 53.547 37.035 83.115h117.717v85.333h-98.517c2.816 21.035 4.651 42.496 4.651 64.469zM512 725.334c94.763 0 177.109-69.291 218.709-170.667h-437.419c41.6 101.376 123.947 170.667 218.709 170.667zM554.667 90.454v293.547h-85.333v-293.547c-116.181 26.24-204.8 157.312-204.8 314.88 0 21.931 1.707 43.307 4.992 64h484.907c3.285-20.693 4.992-42.069 4.992-64 0.043-157.611-88.576-288.64-204.757-314.88z" />
<glyph unicode="&#xea85;" glyph-name="bx-calendar" d="M128-0h768c23.595 0 42.667 19.115 42.667 42.667v725.333c0 23.552-19.072 42.667-42.667 42.667h-170.667v42.667h-85.333v-42.667h-256v42.667h-85.333v-42.667h-170.667c-23.595 0-42.667-19.115-42.667-42.667v-725.333c0-23.552 19.072-42.667 42.667-42.667zM170.667 85.334v426.667h682.667v-426.667h-682.667zM298.667 725.334v-42.667h85.333v42.667h256v-42.667h85.333v42.667h128v-128h-682.667v128h128zM298.667 426.667h85.333v-85.333h-85.333zM298.667 256h85.333v-85.333h-85.333zM469.333 426.667h85.333v-85.333h-85.333zM469.333 256h85.333v-85.333h-85.333zM640 426.667h85.333v-85.333h-85.333zM640 256h85.333v-85.333h-85.333z" />
<glyph unicode="&#xea99;" glyph-name="bx-check" d="M414.165 183.168l426.667 426.667-60.331 60.331-396.501-396.501-183.168 183.168-60.331-60.331 213.333-213.333c7.706-7.749 18.376-12.545 30.165-12.545s22.459 4.796 30.163 12.544l0.002 0.002z" />
<glyph unicode="&#xea9d;" glyph-name="bx-check-circle" d="M512 853.334c-235.264 0-426.667-191.403-426.667-426.667s191.403-426.667 426.667-426.667 426.667 191.403 426.667 426.667-191.403 426.667-426.667 426.667zM512 85.334c-188.203 0-341.333 153.131-341.333 341.333s153.131 341.333 341.333 341.333 341.333-153.131 341.333-341.333-153.131-341.333-341.333-341.333zM426.624 358.955l-98.091 97.92-60.245-60.416 128.256-128c8.32-8.277 19.2-12.459 30.123-12.459s21.845 4.181 30.165 12.501l277.333 277.333-60.331 60.331-247.211-247.211z" />
<glyph unicode="&#xeaa0;" glyph-name="bx-chevron-left" d="M567.168 670.166l-243.499-243.499 243.499-243.499 60.331 60.331-183.168 183.168 183.168 183.168z" />
<glyph unicode="&#xeaa1;" glyph-name="bx-chevron-right" d="M456.832 183.168l243.499 243.499-243.499 243.499-60.331-60.331 183.168-183.168-183.168-183.168z" />
<glyph unicode="&#xeaa3;" glyph-name="bx-chevrons-left" d="M542.165 243.499l-183.168 183.168 183.168 183.168-60.331 60.331-243.499-243.499 243.499-243.499zM695.168 670.166l-243.499-243.499 243.499-243.499 60.331 60.331-183.168 183.168 183.168 183.168z" />
<glyph unicode="&#xeaa4;" glyph-name="bx-chevrons-right" d="M439.296 609.707l184.533-183.040-184.533-183.040 60.075-60.587 245.632 243.627-245.632 243.627zM286.037 183.040l245.632 243.627-245.632 243.627-60.075-60.587 184.533-183.040-184.533-183.040z" />
<glyph unicode="&#xeab3;" glyph-name="bx-code" d="M353.835 670.166l-213.333-213.333c-16.683-16.683-16.683-43.648 0-60.331l213.333-213.333 60.331 60.331-183.168 183.168 183.168 183.168-60.331 60.331zM883.499 456.832l-213.333 213.333-60.331-60.331 183.168-183.168-183.168-183.168 60.331-60.331 213.333 213.333c16.683 16.683 16.683 43.648 0 60.331z" />
<glyph unicode="&#xeab4;" glyph-name="bx-code-block" d="M896 768h-768c-23.595 0-42.667-19.072-42.667-42.667v-597.333c0-23.595 19.072-42.667 42.667-42.667h768c23.595 0 42.667 19.072 42.667 42.667v597.333c0 23.595-19.072 42.667-42.667 42.667zM170.667 170.667v426.667h682.667v-426.667h-682.667zM396.501 542.166l-128-128c-16.683-16.683-16.683-43.648 0-60.331l128-128 60.331 60.331-97.835 97.835 97.835 97.835-60.331 60.331zM627.499 542.166l-60.331-60.331 97.835-97.835-97.835-97.835 60.331-60.331 128 128c16.683 16.683 16.683 43.648 0 60.331l-128 128z" />
<glyph unicode="&#xeab5;" glyph-name="bx-code-curly" d="M810.667 597.334c0 202.069-139.477 255.829-213.248 256l-0.555-85.333c13.141-0.256 128.469-7.381 128.469-170.667 0-85.035 35.456-138.496 80.085-170.667-44.629-32.171-80.085-85.632-80.085-170.667 0-163.285-115.328-170.411-128.469-170.667l0.469-42.667 0.085-42.667c73.771 0.171 213.248 53.931 213.248 256 0 120.448 106.837 127.744 128 128l0.256 85.333c-21.419 0.256-128.256 7.552-128.256 128zM213.333 256c0-202.069 139.477-255.829 213.248-256l0.555 85.333c-13.141 0.256-128.469 7.381-128.469 170.667 0 85.035-35.456 138.496-80.085 170.667 44.629 32.171 80.085 85.632 80.085 170.667 0 163.285 115.328 170.411 128.469 170.667l-0.469 42.667-0.085 42.667c-73.771-0.171-213.248-53.931-213.248-256 0-120.448-106.837-127.744-128-128l-0.256-85.333c21.419-0.256 128.256-7.552 128.256-128z" />
<glyph unicode="&#xeab7;" glyph-name="bx-cog" d="M512 256c94.123 0 170.667 76.544 170.667 170.667s-76.544 170.667-170.667 170.667-170.667-76.544-170.667-170.667 76.544-170.667 170.667-170.667zM512 512c46.251 0 85.333-39.083 85.333-85.333s-39.083-85.333-85.333-85.333-85.333 39.083-85.333 85.333 39.083 85.333 85.333 85.333zM95.744 319.488c-2.901-10.923-1.365-22.571 4.267-32.384l85.333-147.627c11.776-20.352 37.931-27.349 58.283-15.616l59.563 34.389c24.747-19.499 52.096-35.499 80.853-47.445v-68.139c0-23.564 19.103-42.667 42.667-42.667v0h170.667c23.564 0 42.667 19.103 42.667 42.667v0 68.181c30.882 13.021 57.525 28.94 81.571 47.994l-0.718-0.549 59.563-34.389c6.111-3.565 13.453-5.669 21.286-5.669 15.711 0 29.445 8.466 36.887 21.086l0.109 0.2 85.333 147.627c5.632 9.771 7.168 21.419 4.267 32.384s-10.069 20.267-19.883 25.899l-58.496 33.792c2.17 14.17 3.409 30.517 3.409 47.154 0 16.844-1.27 33.391-3.721 49.551l0.226-1.814 58.496 33.792c12.827 7.539 21.301 21.271 21.301 36.981 0 7.84-2.111 15.188-5.794 21.505l0.109-0.203-85.333 147.627c-7.527 12.835-21.256 21.316-36.965 21.316-7.847 0-15.201-2.116-21.52-5.81l0.202 0.109-59.563-34.389c-23.31 18.534-49.942 34.456-78.565 46.599l-2.246 0.846v68.181c0 23.564-19.103 42.667-42.667 42.667v0h-170.667c-23.564 0-42.667-19.103-42.667-42.667v0-68.181c-30.882-13.021-57.525-28.94-81.571-47.994l0.718 0.549-59.52 34.389c-6.12 3.594-13.478 5.716-21.333 5.716-15.709 0-29.435-8.489-36.841-21.131l-0.109-0.201-85.333-147.627c-5.632-9.771-7.168-21.419-4.267-32.384s10.069-20.224 19.883-25.899l58.496-33.792c-2.197-14.258-3.452-30.705-3.452-47.445s1.255-33.188 3.676-49.253l-0.224 1.808-58.496-33.792c-9.69-5.67-16.839-14.793-19.813-25.642l-0.070-0.299zM263.253 367.872c-4.779 19.328-7.253 39.125-7.253 58.795s2.475 39.467 7.253 58.795c0.811 3.107 1.276 6.675 1.276 10.351 0 15.701-8.489 29.419-21.128 36.814l-0.202 0.109-47.957 27.733 42.624 73.771 48.853-28.203c6.116-3.599 13.473-5.726 21.327-5.726 11.391 0 21.737 4.473 29.378 11.758l-0.017-0.016c27.952 26.672 62.029 47.181 99.89 59.19l1.827 0.5c17.629 5.476 30.208 21.641 30.208 40.744 0 0.016 0 0.032 0 0.048v-0.002 55.467h85.333v-55.467c0-0.007 0-0.016 0-0.025 0-19.119 12.575-35.301 29.906-40.726l0.302-0.082c39.688-12.51 73.766-33.019 101.819-59.787l-0.101 0.096c7.634-7.257 17.983-11.721 29.374-11.721 7.847 0 15.199 2.118 21.516 5.814l-0.202-0.109 48.853 28.203 42.624-73.771-47.957-27.691c-12.84-7.505-21.329-21.223-21.329-36.923 0-3.676 0.465-7.244 1.34-10.647l-0.064 0.296c4.779-19.328 7.253-39.125 7.253-58.795s-2.475-39.467-7.253-58.795c-0.811-3.107-1.276-6.675-1.276-10.351 0-15.701 8.489-29.419 21.128-36.814l0.202-0.109 47.957-27.733-42.624-73.771-48.853 28.203c-6.116 3.599-13.473 5.726-21.327 5.726-11.391 0-21.737-4.473-29.378-11.758l0.017 0.016c-27.952-26.672-62.029-47.181-99.89-59.19l-1.827-0.5c-17.629-5.476-30.208-21.641-30.208-40.744 0-0.016 0-0.032 0-0.048v0.002-55.467h-85.333v55.467c0 0.007 0 0.016 0 0.025 0 19.119-12.575 35.301-29.906 40.726l-0.302 0.082c-39.688 12.51-73.766 33.019-101.819 59.787l0.101-0.096c-7.634 7.257-17.983 11.721-29.374 11.721-7.847 0-15.199-2.118-21.516-5.814l0.202 0.109-48.853-28.203-42.624 73.771 47.957 27.733c12.841 7.483 21.333 21.188 21.333 36.876 0 3.678-0.467 7.247-1.344 10.651l0.065-0.295z" />
<glyph unicode="&#xeabe;" glyph-name="bx-conversation" d="M128 768v-512c0.041-23.556 19.147-42.637 42.709-42.637 10.107 0 19.394 3.511 26.708 9.379l-0.084-0.065 201.643 161.323h283.691c23.564 0 42.667 19.103 42.667 42.667v0 341.333c0 23.564-19.103 42.667-42.667 42.667v0h-512c-23.564 0-42.667-19.103-42.667-42.667v0zM213.333 725.334h426.667v-256h-256c-0.006 0-0.013 0-0.020 0-10.119 0-19.415-3.523-26.729-9.408l0.082 0.064-144-115.2v380.544zM826.667 52.011c7.226-5.835 16.523-9.367 26.646-9.367 6.744 0 13.121 1.568 18.788 4.358l-0.25-0.111c14.72 7.125 24.149 22.016 24.149 38.443v512h-85.333v-423.211l-144 115.2c-7.232 5.821-16.528 9.344-26.647 9.344-0.007 0-0.014 0-0.021 0h-213.332v-85.333h198.357l201.643-161.323z" />
<glyph unicode="&#xeac8;" glyph-name="bx-dashboard" d="M512.427 853.334c-0.207 0-0.453 0.001-0.699 0.001-117.684 0-224.173-47.928-301.014-125.33l-0.025-0.026c-166.357-166.315-166.357-437.035 0-603.392 80.853-80.853 187.989-125.355 301.739-125.355s220.885 44.501 301.653 125.312c166.357 166.315 166.357 437.035 0 603.477-76.842 77.401-183.298 125.313-300.944 125.313-0.249 0-0.498 0-0.748-0.001h0.038zM753.749 184.875c-64.683-64.683-150.357-100.309-241.323-100.309-0.187 0-0.409-0.001-0.63-0.001-107.523 0-203.361 50.029-265.506 128.079l-0.53 0.69h533.291c-7.893-9.813-16.213-19.371-25.301-28.459zM850.645 384c-3.867-31.69-11.5-60.518-22.534-87.599l0.817 2.266h-633.088c-10.217 24.815-17.851 53.643-21.552 83.689l-0.165 1.644h81.877v85.333h-81.749c8.121 63.473 32.674 120.052 69.214 166.808l-0.564-0.749 57.899-57.899 60.331 60.331-57.941 57.941c45.97 36.234 102.583 60.984 164.443 69.025l1.701 0.181v-82.304h85.333v82.432c70.792-8.995 133.381-38.704 182.911-82.772l-0.341 0.298-189.952-135.68c-10.249 4.841-22.26 7.684-34.93 7.723h-0.014c-46.94 0-84.992-38.052-84.992-84.992s38.052-84.992 84.992-84.992c46.94 0 84.992 38.052 84.992 84.992 0 0.030 0 0.060 0 0.090v-0.005c0 2.603-0.555 5.035-0.768 7.595l197.632 141.184c29.094-42.183 49.113-92.794 56.102-147.478l0.176-1.685h-82.475v-85.333h82.645z" />
<glyph unicode="&#xeaca;" glyph-name="bx-desktop" d="M896 768h-768c-23.564 0-42.667-19.103-42.667-42.667v0-512c0-23.564 19.103-42.667 42.667-42.667v0h341.333v-85.333h-85.333v-85.333h256v85.333h-85.333v85.333h341.333c23.564 0 42.667 19.103 42.667 42.667v0 512c0 23.564-19.103 42.667-42.667 42.667v0zM853.333 298.667h-682.667v384h682.667v-384z" />
<glyph unicode="&#xead8;" glyph-name="bx-dots-horizontal" d="M426.667 512h170.667v-170.667h-170.667zM682.667 512h170.667v-170.667h-170.667zM170.667 512h170.667v-170.667h-170.667z" />
<glyph unicode="&#xead9;" glyph-name="bx-dots-horizontal-rounded" d="M512 512c-46.933 0-85.333-38.4-85.333-85.333s38.4-85.333 85.333-85.333 85.333 38.4 85.333 85.333-38.4 85.333-85.333 85.333zM768 512c-46.933 0-85.333-38.4-85.333-85.333s38.4-85.333 85.333-85.333 85.333 38.4 85.333 85.333-38.4 85.333-85.333 85.333zM256 512c-46.933 0-85.333-38.4-85.333-85.333s38.4-85.333 85.333-85.333 85.333 38.4 85.333 85.333-38.4 85.333-85.333 85.333z" />
<glyph unicode="&#xeada;" glyph-name="bx-dots-vertical" d="M426.667 512h170.667v-170.667h-170.667zM426.667 768h170.667v-170.667h-170.667zM426.667 256h170.667v-170.667h-170.667z" />
<glyph unicode="&#xeadb;" glyph-name="bx-dots-vertical-rounded" d="M512 512c-46.933 0-85.333-38.4-85.333-85.333s38.4-85.333 85.333-85.333 85.333 38.4 85.333 85.333-38.4 85.333-85.333 85.333zM512 768c-46.933 0-85.333-38.4-85.333-85.333s38.4-85.333 85.333-85.333 85.333 38.4 85.333 85.333-38.4 85.333-85.333 85.333zM512 256c-46.933 0-85.333-38.4-85.333-85.333s38.4-85.333 85.333-85.333 85.333 38.4 85.333 85.333-38.4 85.333-85.333 85.333z" />
<glyph unicode="&#xeaef;" glyph-name="bx-eyedropper" d="M798.165 840.832c-7.716 7.729-18.382 12.51-30.165 12.51s-22.449-4.781-30.165-12.509l-140.63-140.63-55.381 55.296-60.331-60.331 55.381-55.296-353.707-353.707c-5.313-5.319-9.231-12.032-11.157-19.544l-0.064-0.296-42.667-170.667c-0.834-3.147-1.313-6.761-1.313-10.486 0-23.493 19.045-42.539 42.539-42.539 3.725 0 7.339 0.479 10.782 1.378l-0.296-0.066 170.667 42.667c7.509 1.877 14.379 5.76 19.84 11.221l353.792 353.792 55.211-55.125 60.331 60.331-55.211 55.125 140.544 140.544c7.729 7.716 12.51 18.382 12.51 30.165s-4.781 22.449-12.509 30.165l-128.001 128.001zM319.488 166.528l-90.197-22.571 22.571 90.197 345.387 345.387 67.669-67.584-345.429-345.429z" />
<glyph unicode="&#xeaf3;" glyph-name="bx-file" d="M170.667 810.667v-768c0-23.564 19.103-42.667 42.667-42.667v0h597.333c23.564 0 42.667 19.103 42.667 42.667v0 512c0 0.896-0.469 1.749-0.555 2.645-0.229 4.025-1.008 7.793-2.264 11.335l0.088-0.284c-0.469 1.365-0.853 2.688-1.408 3.968-2.129 4.836-4.942 8.975-8.373 12.512l0.010-0.011-256 256c-3.524 3.387-7.646 6.184-12.187 8.212l-0.271 0.108c-1.323 0.64-2.688 0.981-4.139 1.451-3.18 1.135-6.86 1.897-10.682 2.128l-0.112 0.005c-0.939 0.085-1.835 0.597-2.773 0.597h-341.333c-23.564 0-42.667-19.103-42.667-42.667v0zM707.669 597.334h-110.336v110.336l110.336-110.336zM256 768h256v-213.333c0-23.564 19.103-42.667 42.667-42.667v0h213.333v-426.667h-512v682.667zM341.333 426.667h341.333v-85.333h-341.333zM341.333 597.334h85.333v-85.333h-85.333zM341.333 256h341.333v-85.333h-341.333z" />
<glyph unicode="&#xeaf6;" glyph-name="bx-file-plus" d="M213.333-0h256v85.333h-213.333v682.667h256v-213.333c0-23.564 19.103-42.667 42.667-42.667v0h213.333v-128h85.333v170.667c0 0.896-0.469 1.749-0.555 2.645-0.229 4.025-1.008 7.793-2.264 11.335l0.088-0.284c-0.469 1.365-0.853 2.688-1.408 3.968-2.129 4.836-4.942 8.975-8.373 12.512l0.010-0.011-256 256c-3.516 3.402-7.641 6.201-12.191 8.214l-0.268 0.106c-1.365 0.64-2.688 0.981-4.139 1.451-3.161 1.109-6.823 1.869-10.623 2.126l-0.129 0.007c-0.981 0.085-1.877 0.597-2.816 0.597h-341.333c-23.564 0-42.667-19.103-42.667-42.667v0-768c0-23.564 19.103-42.667 42.667-42.667v0zM597.333 707.67l110.336-110.336h-110.336v110.336zM640-0h85.333v128h128v85.333h-128v128h-85.333v-128h-128v-85.333h128z" />
<glyph unicode="&#xeaff;" glyph-name="bx-flag-alt" d="M170.667 853.334v-853.333h85.333v298.667h554.667c23.555 0.013 42.645 19.11 42.645 42.667 0 8.808-2.669 16.993-7.243 23.79l0.097-0.153-112.213 168.363 112.213 168.32c4.494 6.653 7.174 14.854 7.174 23.68 0 23.564-19.103 42.667-42.667 42.667-0.002 0-0.005 0-0.007 0h-554.666v85.333h-85.333zM730.965 682.667l-83.797-125.653c-4.486-6.649-7.16-14.841-7.16-23.659s2.675-17.010 7.257-23.811l-0.097 0.152 83.797-125.696h-474.965v298.667h474.965z" />
<glyph unicode="&#xeb01;" glyph-name="bx-folder" d="M896 725.334h-373.931l-161.664 80.853c-5.553 2.825-12.109 4.48-19.052 4.48-0.007 0-0.014 0-0.021 0h-213.332c-23.564 0-42.667-19.103-42.667-42.667v0-682.667c0-23.564 19.103-42.667 42.667-42.667v0h768c23.564 0 42.667 19.103 42.667 42.667v0 597.333c0 23.564-19.103 42.667-42.667 42.667v0zM853.333 128h-682.667v597.333h160.597l161.664-80.853c5.888-2.944 12.459-4.48 19.072-4.48h341.333v-512z" />
<glyph unicode="&#xeb13;" glyph-name="bx-grid" d="M426.667 512h170.667v-170.667h-170.667zM682.667 512h170.667v-170.667h-170.667zM682.667 768h170.667v-170.667h-170.667zM426.667 768h170.667v-170.667h-170.667zM170.667 768h170.667v-170.667h-170.667zM170.667 512h170.667v-170.667h-170.667zM426.667 256h170.667v-170.667h-170.667zM682.667 256h170.667v-170.667h-170.667zM170.667 256h170.667v-170.667h-170.667z" />
<glyph unicode="&#xeb1d;" glyph-name="bx-highlight" d="M843.051 603.734l-128 149.333c-7.424 8.704-18.091 14.037-29.483 14.848-11.477 0.597-22.656-3.072-31.189-10.709l-384-341.333c-4.949-4.395-8.789-9.856-11.264-16.043l-81.749-204.331-36.864-36.949 60.416-60.245 34.261 34.389 203.776 61.141c5.973 1.792 11.477 4.864 16.085 9.003l384 341.333c17.365 15.403 19.157 41.899 4.011 59.563zM430.763 295.424l-72.448 84.48 320.213 284.672 72.448-84.523-320.213-284.629zM512 170.667h341.333v-85.333h-341.333z" />
<glyph unicode="&#xeb1f;" glyph-name="bx-home" d="M128 384h42.667v-341.333c0-23.564 19.103-42.667 42.667-42.667v0h597.333c23.564 0 42.667 19.103 42.667 42.667v0 341.333h42.667c23.56 0.005 42.658 19.106 42.658 42.667 0 11.78-4.774 22.445-12.492 30.165l-384 384c-7.716 7.729-18.382 12.51-30.165 12.51s-22.449-4.781-30.165-12.509l-384.001-384.001c-7.718-7.721-12.492-18.386-12.492-30.165 0-23.561 19.097-42.661 42.657-42.667h0.001zM597.333 85.334h-170.667v170.667h170.667v-170.667zM512 750.336l283.691-283.691c-16.308-6.264-27.676-21.792-27.691-39.977v-341.335h-85.333v213.333c0 23.564-19.103 42.667-42.667 42.667v0h-256c-23.564 0-42.667-19.103-42.667-42.667v0-213.333h-85.333v341.333c0 18.304-11.52 33.877-27.691 39.979l283.691 283.691z" />
<glyph unicode="&#xeb20;" glyph-name="bx-home-alt" d="M170.667-0h682.667c23.564 0 42.667 19.103 42.667 42.667v0 426.667c0 0.013 0 0.028 0 0.044 0 11.768-4.778 22.419-12.5 30.12l-341.334 341.334c-7.716 7.729-18.382 12.51-30.165 12.51s-22.449-4.781-30.165-12.509l-341.334-341.334c-7.723-7.702-12.501-18.354-12.501-30.121 0-0.015 0-0.031 0-0.046v0.002-426.667c0-23.564 19.103-42.667 42.667-42.667v0zM213.333 451.67l298.667 298.667 298.667-298.667v-366.336h-170.667v256h-256v-256h-170.667v366.336z" />
<glyph unicode="&#xeb2d;" glyph-name="bx-info-circle" d="M512 853.334c-235.264 0-426.667-191.403-426.667-426.667s191.403-426.667 426.667-426.667 426.667 191.403 426.667 426.667-191.403 426.667-426.667 426.667zM512 85.334c-188.203 0-341.333 153.131-341.333 341.333s153.131 341.333 341.333 341.333 341.333-153.131 341.333-341.333-153.131-341.333-341.333-341.333zM469.333 469.334h85.333v-256h-85.333zM469.333 640h85.333v-85.333h-85.333z" />
<glyph unicode="&#xeb3d;" glyph-name="bx-link-alt" d="M298.667 213.334h170.667v85.333h-170.667c-70.571 0-128 57.429-128 128s57.429 128 128 128h170.667v85.333h-170.667c-117.632 0-213.333-95.701-213.333-213.333s95.701-213.333 213.333-213.333zM725.333 640h-170.667v-85.333h170.667c70.571 0 128-57.429 128-128s-57.429-128-128-128h-170.667v-85.333h170.667c117.632 0 213.333 95.701 213.333 213.333s-95.701 213.333-213.333 213.333zM256 469.334h512v-85.333h-512z" />
<glyph unicode="&#xeb3e;" glyph-name="bx-link-external" d="M768 170.667h-512v512h298.667v85.333h-341.333c-23.564 0-42.667-19.103-42.667-42.667v0-597.333c0-23.564 19.103-42.667 42.667-42.667v0h597.333c23.564 0 42.667 19.103 42.667 42.667v0 341.333h-85.333v-298.667zM745.173 720.171l-263.339-263.339 60.331-60.331 263.339 263.339 90.453-90.496 0.043 241.323h-241.365z" />
<glyph unicode="&#xeb3f;" glyph-name="bx-list" d="M128 725.334h768v-85.333h-768zM128 554.667h768v-85.333h-768zM128 384h768v-85.333h-768zM128 213.334h768v-85.333h-768z" />
<glyph unicode="&#xeb52;" glyph-name="bx-menu" d="M128 682.667h768v-85.333h-768zM128 469.334h768v-85.333h-768zM128 256h768v-85.333h-768z" />
<glyph unicode="&#xeb55;" glyph-name="bx-message" d="M128 213.334h170.667v-170.667c0-0.028 0-0.061 0-0.094 0-23.541 19.083-42.624 42.624-42.624 11.804 0 22.488 4.798 30.207 12.551l200.834 200.834h323.669c23.564 0 42.667 19.103 42.667 42.667v0 469.333c0 23.564-19.103 42.667-42.667 42.667v0h-768c-23.564 0-42.667-19.103-42.667-42.667v0-469.333c0-23.564 19.103-42.667 42.667-42.667v0zM170.667 682.667h682.667v-384h-298.667c-0.018 0-0.040 0-0.062 0-11.762 0-22.408-4.779-30.102-12.5l-140.502-140.502v110.336c0 23.564-19.103 42.667-42.667 42.667v0h-170.667v384z" />
<glyph unicode="&#xeb57;" glyph-name="bx-message-detail" d="M896 810.667h-768c-23.564 0-42.667-19.103-42.667-42.667v0-512c0-23.564 19.103-42.667 42.667-42.667v0h170.667v-170.667c0-0.028 0-0.061 0-0.094 0-23.541 19.083-42.624 42.624-42.624 11.804 0 22.488 4.798 30.207 12.551l200.834 200.834h323.669c23.564 0 42.667 19.103 42.667 42.667v0 512c0 23.564-19.103 42.667-42.667 42.667v0zM853.333 298.667h-298.667c-0.018 0-0.040 0-0.062 0-11.762 0-22.408-4.779-30.102-12.5l-140.502-140.502v110.336c0 23.564-19.103 42.667-42.667 42.667v0h-170.667v426.667h682.667v-426.667zM256 640h512v-85.333h-512zM256 469.334h256v-85.333h-256z" />
<glyph unicode="&#xeb6b;" glyph-name="bx-package" d="M938.368 599.68c-0.144 3.223-0.588 6.264-1.304 9.199l0.067-0.324c-0.427 1.536-1.195 2.901-1.792 4.395-0.811 1.963-1.408 4.011-2.475 5.803-0.939 1.621-2.261 2.987-3.413 4.48-1.109 1.408-2.048 2.944-3.328 4.267-1.365 1.365-3.029 2.432-4.565 3.584-1.323 0.981-2.517 2.219-3.968 3.072l-0.427 0.171-0.512 0.384-384.896 212.907c-5.957 3.348-13.076 5.321-20.655 5.321-7.61 0-14.756-1.988-20.946-5.474l0.214 0.111-383.104-212.907c-0.085-0.128-0.171-0.256-0.341-0.299-0.171-0.128-0.384-0.128-0.555-0.256-1.92-1.109-3.456-2.645-5.12-4.011-1.067-0.853-2.347-1.621-3.328-2.56-1.664-1.664-2.944-3.627-4.352-5.547-0.768-1.109-1.749-2.048-2.389-3.2-1.101-1.992-2.113-4.321-2.905-6.75l-0.082-0.29c-0.384-1.067-0.981-2.091-1.28-3.157-0.748-2.72-1.21-5.856-1.279-9.089l-0.001-0.042c-0.043-0.725-0.299-1.323-0.299-2.048v-341.419c0-15.488 8.405-29.781 21.973-37.291l384.043-213.333c1.835-1.024 3.84-1.579 5.76-2.304 1.365-0.555 2.688-1.28 4.139-1.664 3.239-0.87 6.959-1.37 10.795-1.37s7.555 0.5 11.096 1.438l-0.302-0.068c1.408 0.384 2.731 1.109 4.139 1.664 1.92 0.725 3.925 1.237 5.76 2.304l0.853 0.469 0.085 0.043 0.043 0.043 383.061 212.779c13.483 7.509 21.888 21.803 21.888 37.291v341.419c0 0.811-0.256 1.493-0.299 2.261zM513.195 432.128l-121.771 67.669 296.021 164.181 120.747-66.816-294.997-165.035zM511.147 761.472l77.696-42.965-293.675-165.248-79.317 44.075 295.296 164.139zM170.667 524.544l85.333-47.744v-88.533l85.333-46.933v87.723l127.915-71.595 0.085-242.304-298.667 165.973v243.413zM554.667 115.158v242.347l298.667 167.083v-243.456l-298.667-165.973z" />
<glyph unicode="&#xeb6c;" glyph-name="bx-paperclip" d="M768.171 725.334h-426.837c-161.877 0-298.667-136.789-298.667-298.667s136.789-298.667 298.667-298.667h384v85.333h-384c-115.627 0-213.333 97.707-213.333 213.333s97.707 213.333 213.333 213.333h426.667v42.667l0.043-42.667h0.128c69.248 0 127.787-58.624 127.829-128.043 0.043-33.707-13.355-65.707-37.76-90.069-23-23.324-54.921-37.799-90.223-37.888h-426.684c-22.699 0-42.667 19.968-42.667 42.667s19.968 42.667 42.667 42.667h384v85.333h-384c-69.376 0-128-58.624-128-128s58.624-128 128-128h426.709c58.855 0.040 112.091 24.066 150.468 62.83l0.017 0.018c38.784 38.311 62.805 91.491 62.805 150.281 0 0.087 0 0.173 0 0.26v-0.013c-0.145 117.694-95.479 213.072-213.142 213.291h-0.021z" />
<glyph unicode="&#xeb73;" glyph-name="bx-pencil" d="M798.165 840.832c-7.716 7.729-18.382 12.51-30.165 12.51s-22.449-4.781-30.165-12.509l-554.668-554.668c-5.303-5.31-9.219-12.007-11.156-19.5l-0.065-0.297-42.667-170.667c-0.81-3.109-1.276-6.678-1.276-10.355 0-23.564 19.103-42.667 42.667-42.667 3.665 0 7.222 0.462 10.617 1.331l-0.296-0.064 170.667 42.667c7.509 1.877 14.379 5.76 19.84 11.221l554.667 554.667c7.729 7.716 12.51 18.382 12.51 30.165s-4.781 22.449-12.509 30.165l-128.001 128.001zM319.488 166.528l-90.197-22.528 22.571 90.197 388.139 388.139 67.669-67.669-388.181-388.139zM768 614.998l-67.669 67.669 67.669 67.669 67.669-67.669-67.669-67.669z" />
<glyph unicode="&#xeb7e;" glyph-name="bx-play-circle" d="M512 853.334c-235.264 0-426.667-191.403-426.667-426.667s191.403-426.667 426.667-426.667 426.667 191.403 426.667 426.667-191.403 426.667-426.667 426.667zM512 85.334c-188.203 0-341.333 153.131-341.333 341.333s153.131 341.333 341.333 341.333 341.333-153.131 341.333-341.333-153.131-341.333-341.333-341.333zM426.667 256l256 170.667-256 170.667z" />
<glyph unicode="&#xeb88;" glyph-name="bx-purchase-tag" d="M542.165 840.832c-7.696 7.723-18.342 12.501-30.104 12.501-0.022 0-0.043 0-0.065 0h-383.997c-23.564 0-42.667-19.103-42.667-42.667v0-384c0-11.349 4.48-22.187 12.501-30.165l384-384c7.706-7.749 18.376-12.545 30.165-12.545s22.459 4.796 30.163 12.544l384.002 384.002c7.729 7.716 12.51 18.382 12.51 30.165s-4.781 22.449-12.509 30.165l-384.001 384.001zM512 102.998l-341.333 341.333v323.669h323.669l341.333-341.333-323.669-323.669zM384.512 618.454c0-35.464-28.749-64.213-64.213-64.213s-64.213 28.749-64.213 64.213c0 35.464 28.749 64.213 64.213 64.213s64.213-28.749 64.213-64.213z" />
<glyph unicode="&#xeb96;" glyph-name="bx-repost" d="M213.333 512v-298.667c0-23.564 19.103-42.667 42.667-42.667v0h341.333v85.333h-298.667v256h128l-170.667 170.667-170.667-170.667h128zM810.667 640c0 23.564-19.103 42.667-42.667 42.667v0h-341.333v-85.333h298.667v-256h-128l169.344-170.667 171.989 170.667h-128v298.667z" />
<glyph unicode="&#xeb9c;" glyph-name="bx-right-arrow" d="M298.667 85.334c0.008 0 0.018 0 0.028 0 8.492 0 16.405 2.481 23.053 6.758l-0.169-0.102 469.333 298.667c11.928 7.718 19.709 20.956 19.709 36.011s-7.782 28.292-19.542 35.909l-0.167 0.101-469.333 298.667c-6.493 4.208-14.432 6.709-22.955 6.709-23.541 0-42.624-19.083-42.624-42.624 0-0.034 0-0.067 0-0.101v0.005-597.333c0-0.025 0-0.055 0-0.085 0-23.517 19.064-42.581 42.581-42.581 0.030 0 0.060 0 0.090 0h-0.005zM341.333 647.595l347.221-220.928-347.221-220.928v441.856z" />
<glyph unicode="&#xeba7;" glyph-name="bx-search" d="M426.667 170.667c79.148 0.017 151.959 27.132 209.664 72.572l-0.725-0.55 187.563-187.563 60.331 60.331-187.563 187.563c44.913 56.987 72.044 129.814 72.064 208.977v0.005c0 188.203-153.131 341.333-341.333 341.333s-341.333-153.131-341.333-341.333 153.131-341.333 341.333-341.333zM426.667 768c141.184 0 256-114.816 256-256s-114.816-256-256-256-256 114.816-256 256 114.816 256 256 256z" />
<glyph unicode="&#xebad;" glyph-name="bx-share" d="M469.333 637.696v130.304c-0.005 23.56-19.106 42.658-42.667 42.658-11.78 0-22.445-4.774-30.165-12.492l-298.667-298.667c-7.729-7.716-12.51-18.382-12.51-30.165s4.781-22.449 12.509-30.165l298.668-298.668c7.72-7.754 18.404-12.553 30.208-12.553 23.541 0 42.624 19.083 42.624 42.624 0 0.033 0 0.066 0 0.099v-0.005 132.096c12.117 0.853 24.107 1.237 35.968 1.237 231.509 0 351.531-152.405 356.779-159.147 7.839-10.291 20.1-16.866 33.897-16.866 4.864 0 9.537 0.817 13.889 2.322l-0.299-0.090c17.055 5.845 29.097 21.74 29.099 40.448v0c0 389.291-345.003 455.723-469.333 467.029zM505.301 389.334c-27.605 0-55.979-1.92-84.267-5.675-21.018-2.898-37.032-20.741-37.035-42.325v0-67.669l-195.669 195.669 195.669 195.669v-67.669c0-23.552 20.096-42.667 43.605-42.667 38.827 0 346.197-8.576 412.971-274.133-70.571 51.968-182.656 108.8-335.275 108.8z" />
<glyph unicode="&#xebb3;" glyph-name="bx-show" d="M512 554.667c-70.498-0.48-127.52-57.502-128-127.954v-0.046c0-70.059 57.941-128 128-128 70.016 0 128 57.941 128 128 0 70.016-57.984 128-128 128zM512 725.334c-325.675 0-423.552-282.325-424.448-285.184-1.399-4.029-2.207-8.672-2.207-13.504s0.808-9.475 2.297-13.802l-0.089 0.298c0.896-2.816 98.773-285.141 424.448-285.141s423.552 282.325 424.448 285.184c1.399 4.029 2.207 8.672 2.207 13.504s-0.808 9.475-2.297 13.802l0.089-0.298c-0.896 2.816-98.773 285.141-424.448 285.141zM512 213.334c-228.309 0-316.757 164.096-338.176 213.333 21.504 49.408 109.995 213.333 338.176 213.333 228.309 0 316.757-164.096 338.176-213.333-21.504-49.408-109.995-213.333-338.176-213.333z" />
<glyph unicode="&#xebbe;" glyph-name="bx-slider-alt" d="M704 576c-67.413 0-123.861-45.227-142.379-106.667h-476.288v-85.333h476.288c18.517-61.44 74.965-106.667 142.379-106.667s123.861 45.227 142.379 106.667h92.288v85.333h-92.288c-18.517 61.44-74.965 106.667-142.379 106.667zM704 362.667c-35.285 0-64 28.715-64 64s28.715 64 64 64 64-28.715 64-64-28.715-64-64-64zM469.333 832c-67.413 0-123.861-45.227-142.379-106.667h-241.621v-85.333h241.621c18.517-61.44 74.965-106.667 142.379-106.667s123.861 45.227 142.379 106.667h326.955v85.333h-326.955c-18.517 61.44-74.965 106.667-142.379 106.667zM469.333 618.667c-35.285 0-64 28.715-64 64s28.715 64 64 64 64-28.715 64-64-28.715-64-64-64zM320 320c-67.413 0-123.861-45.227-142.379-106.667h-92.288v-85.333h92.288c18.517-61.44 74.965-106.667 142.379-106.667s123.861 45.227 142.379 106.667h476.288v85.333h-476.288c-18.517 61.44-74.965 106.667-142.379 106.667zM320 106.667c-35.285 0-64 28.715-64 64s28.715 64 64 64 64-28.715 64-64-28.715-64-64-64z" />
<glyph unicode="&#xebc7;" glyph-name="bx-star" d="M292.48 325.76l-77.525-271.36c-1.021-3.479-1.608-7.475-1.608-11.608 0-23.588 19.122-42.709 42.709-42.709 8.801 0 16.981 2.662 23.777 7.225l-0.153-0.097 232.32 154.837 232.32-154.88c6.657-4.501 14.863-7.185 23.696-7.185 23.564 0 42.667 19.103 42.667 42.667 0 4.17-0.598 8.2-1.714 12.010l0.076-0.302-77.525 271.36 191.147 152.917c9.753 7.893 15.938 19.863 15.938 33.277 0 21.079-15.27 38.591-35.352 42.078l-0.255 0.037-234.539 39.083-118.272 236.587c-14.507 28.928-61.824 28.928-76.331 0l-118.315-236.544-234.539-39.083c-20.362-3.48-35.666-20.997-35.666-42.088 0-13.435 6.209-25.419 15.914-33.24l0.082-0.064 191.147-152.917zM390.997 512.598c13.44 2.261 25.045 10.795 31.147 22.997l89.856 179.669 89.813-179.669c6.144-12.203 17.707-20.736 31.147-22.997l161.707-26.965-138.709-110.976c-9.793-7.909-16.005-19.915-16.005-33.372 0-4.161 0.594-8.183 1.701-11.987l-0.075 0.302 53.461-187.093-159.403 106.283c-6.656 4.499-14.86 7.182-23.691 7.182-8.804 0-16.985-2.666-23.779-7.236l0.153 0.097-159.403-106.283 53.461 187.093c1.036 3.506 1.632 7.533 1.632 11.7 0 13.454-6.214 25.456-15.929 33.292l-0.082 0.064-138.709 110.976 161.707 26.923z" />
<glyph unicode="&#xebd6;" glyph-name="bx-tag" d="M308.523 143.318c8.149-9.685 20.139-15.317 32.811-15.317h554.667c23.564 0 42.667 19.103 42.667 42.667v0 512c0 23.564-19.103 42.667-42.667 42.667v0h-554.667c-12.672 0-24.661-5.632-32.811-15.317l-213.333-256c-13.184-15.829-13.184-38.827 0-54.656l213.333-256.043zM361.344 640h491.989v-426.667h-491.989l-177.792 213.333 177.792 213.333z" />
<glyph unicode="&#xebd7;" glyph-name="bx-tag-x" d="M542.165 268.502l97.835 97.835 97.835-97.835 60.331 60.331-97.835 97.835 97.835 97.835-60.331 60.331-97.835-97.835-97.835 97.835-60.331-60.331 97.835-97.835-97.835-97.835zM308.523 143.318c8.149-9.685 20.139-15.317 32.811-15.317h554.667c23.564 0 42.667 19.103 42.667 42.667v0 512c0 23.564-19.103 42.667-42.667 42.667v0h-554.667c-12.672 0-24.661-5.632-32.811-15.317l-213.333-256c-13.184-15.829-13.184-38.827 0-54.656l213.333-256.043zM361.344 640h491.989v-426.667h-491.989l-177.792 213.333 177.792 213.333z" />
<glyph unicode="&#xebdc;" glyph-name="bx-terminal" d="M512 341.334h256v-85.333h-256zM328.832 268.502l128 128c7.729 7.716 12.51 18.382 12.51 30.165s-4.781 22.449-12.509 30.165l-128.001 128.001-60.331-60.331 97.835-97.835-97.835-97.835 60.331-60.331zM896 768h-768c-23.564 0-42.667-19.103-42.667-42.667v0-597.333c0-23.564 19.103-42.667 42.667-42.667v0h768c23.564 0 42.667 19.103 42.667 42.667v0 597.333c0 23.564-19.103 42.667-42.667 42.667v0zM853.333 170.667h-682.667v512h682.667v-512z" />
<glyph unicode="&#xebdf;" glyph-name="bx-time" d="M512 853.334c-235.264 0-426.667-191.403-426.667-426.667s191.403-426.667 426.667-426.667 426.667 191.403 426.667 426.667-191.403 426.667-426.667 426.667zM512 85.334c-188.203 0-341.333 153.131-341.333 341.333s153.131 341.333 341.333 341.333 341.333-153.131 341.333-341.333-153.131-341.333-341.333-341.333zM554.667 640h-85.333v-230.997l140.501-140.501 60.331 60.331-115.499 115.499z" />
<glyph unicode="&#xebe8;" glyph-name="bx-trash" d="M213.333 42.667c0-23.564 19.103-42.667 42.667-42.667v0h512c23.564 0 42.667 19.103 42.667 42.667v0 554.667h85.333v85.333h-213.333v128c0 23.564-19.103 42.667-42.667 42.667v0h-256c-23.564 0-42.667-19.103-42.667-42.667v0-128h-213.333v-85.333h85.333v-554.667zM426.667 768h170.667v-85.333h-170.667v85.333zM384 597.334h341.333v-512h-426.667v512h85.333zM384 512h85.333v-341.333h-85.333zM554.667 512h85.333v-341.333h-85.333z" />
<glyph unicode="&#xebf7;" glyph-name="bx-upload" d="M554.667 258.646v338.688h128l-170.667 170.667-170.667-170.667h128v-338.688zM853.333 170.667h-682.667v341.333h-85.333v-384c0-23.564 19.103-42.667 42.667-42.667v0h768c23.564 0 42.667 19.103 42.667 42.667v0 384h-85.333v-341.333z" />
<glyph unicode="&#xebfa;" glyph-name="bx-user" d="M128 42.667c0-23.595 19.115-42.667 42.667-42.667h682.667c23.595 0 42.667 19.072 42.667 42.667v42.667c0 158.464-96.469 294.699-233.728 353.323 51.499 43.093 84.395 107.776 84.395 180.011 0 129.365-105.301 234.667-234.667 234.667-129.408 0-234.667-105.301-234.667-234.667 0-72.235 32.896-136.917 84.395-180.011-137.259-58.624-233.728-194.901-233.728-353.323v-42.667zM362.667 618.667c0 82.347 66.987 149.333 149.333 149.333s149.333-66.987 149.333-149.333-66.987-149.333-149.333-149.333-149.333 66.987-149.333 149.333zM512 384c164.651 0 298.667-134.016 298.667-298.667h-597.333c0 164.651 133.973 298.667 298.667 298.667z" />
<glyph unicode="&#xec19;" glyph-name="bx-x" d="M286.165 140.502l225.835 225.835 225.835-225.835 60.331 60.331-225.835 225.835 225.835 225.835-60.331 60.331-225.835-225.835-225.835 225.835-60.331-60.331 225.835-225.835-225.835-225.835z" />
<glyph unicode="&#xec1a;" glyph-name="bx-x-circle" d="M631.168 606.166l-119.168-119.168-119.168 119.168-60.331-60.331 119.168-119.168-119.168-119.168 60.331-60.331 119.168 119.168 119.168-119.168 60.331 60.331-119.168 119.168 119.168 119.168zM512 853.334c-235.264 0-426.667-191.403-426.667-426.667s191.403-426.667 426.667-426.667 426.667 191.403 426.667 426.667-191.403 426.667-426.667 426.667zM512 85.334c-188.203 0-341.333 153.131-341.333 341.333s153.131 341.333 341.333 341.333 341.333-153.131 341.333-341.333-153.131-341.333-341.333-341.333z" />
</font>
</defs>
</svg>
