<svg height="512pt" viewBox="0 0 512.00006 512" width="512pt" xmlns="http://www.w3.org/2000/svg"><path d="m50.914062 511.953125c-13.429687 0-26.460937-4.832031-36.246093-14.617187-10.34375-10.34375-15.515625-24.46875-14.554688-39.765626.914063-14.570312 7.355469-28.535156 18.144531-39.324218l177.441407-177.441406 75.5 75.496093-177.445313 177.445313c-12.074218 12.074218-27.710937 18.207031-42.839844 18.207031zm0 0" fill="#ffda45"/><path d="m512 181.199219c0 100.074219-81.125 181.199219-181.199219 181.199219-100.070312 0-181.195312-81.125-181.195312-181.199219 0-100.070313 81.125-181.19531275 181.195312-181.19531275 100.074219 0 181.199219 81.12499975 181.199219 181.19531275zm0 0" fill="#ff432e"/><path d="m456.699219 311.5c-70.914063 68.578125-184.003907 67.863281-254.03125-2.179688-.644531-.628906-1.273438-1.273437-1.890625-1.933593-33.472656-35.523438-32.84375-91.449219 1.890625-126.183594 35.382812-35.394531 92.753906-35.394531 128.136719 0-35.394532 35.378906-35.394532 92.738281 0 128.132813 34.644531 34.648437 90.375 35.363281 125.894531 2.164062zm0 0" fill="#e3fbff"/><path d="m458.933594 181.199219c-35.390625 35.382812-92.753906 35.382812-128.132813 0 35.378907-35.378907 35.378907-92.753907 0-128.132813-34.820312-34.820312-90.960937-35.363281-126.457031-1.632812 70.886719-69.125 184.378906-68.566406 254.578125 1.632812.15625.160156.328125.316406.488281.488282.15625.15625.328125.316406.472656.488281.328126.328125.644532.65625.945313.988281.101563.085938.1875.183594.273437.285156 33.199219 35.523438 32.46875 91.25-2.167968 125.882813zm0 0" fill="#e3fbff"/><path d="m458.925781 53.070312-256.253906 256.253907c32.792969 32.792969 78.09375 53.074219 128.128906 53.074219 100.074219 0 181.199219-81.125 181.199219-181.199219 0-50.035157-20.28125-95.335938-53.074219-128.128907zm0 0" fill="#ea0016"/><path d="m233.449219 278.554688-218.78125 218.78125c9.785156 9.785156 22.816406 14.617187 36.246093 14.617187 15.128907 0 30.765626-6.132813 42.84375-18.207031l177.441407-177.445313zm0 0" fill="#ff9f00"/><g fill="#a6ecff"><path d="m330.800781 309.335938c-35.394531-35.394532-35.394531-92.753907 0-128.136719l-128.128906 128.125c70.027344 70.039062 183.113281 70.753906 254.027344 2.175781-35.519531 33.199219-91.25 32.484375-125.898438-2.164062zm0 0"/><path d="m461.097656 55.316406c-.082031-.097656-.171875-.199218-.269531-.285156-.300781-.328125-.617187-.660156-.945313-.988281-.144531-.171875-.316406-.328125-.476562-.488281-.15625-.167969-.324219-.324219-.480469-.480469l-127.988281 127.988281c-.046875.042969-.089844.09375-.136719.140625 35.378907 35.378906 92.742188 35.378906 128.132813 0 34.636718-34.636719 35.367187-90.363281 2.164062-125.886719zm0 0"/></g></svg>