<svg xmlns="http://www.w3.org/2000/svg" height="511pt" version="1.1" viewBox="0 0 511.999 511" width="511pt">
<g id="surface1">
<path d="M 243.113281 311.789062 L 51.144531 503.597656 C 39.484375 515.257812 20.402344 515.257812 8.746094 503.597656 C -2.914062 491.941406 -2.914062 472.859375 8.746094 461.199219 L 200.714844 269.390625 Z M 243.113281 311.789062 " style=" stroke:none;fill-rule:nonzero;fill:rgb(99.607843%,82.352941%,64.313725%);fill-opacity:1;" />
<path d="M 221.914062 290.589844 L 243.113281 311.789062 L 51.144531 503.597656 C 39.484375 515.257812 20.402344 515.257812 8.746094 503.597656 Z M 221.914062 290.589844 " style=" stroke:none;fill-rule:nonzero;fill:rgb(96.470588%,66.27451%,42.352941%);fill-opacity:1;" />
<path d="M 433.625 269.105469 C 423.0625 219.652344 317.3125 195.195312 317.3125 195.195312 L 185.28125 336.707031 C 184.609375 336.640625 184.011719 336.519531 183.34375 336.449219 C 219.785156 371.03125 268.46875 391.207031 322.445312 389.820312 C 322.972656 389.390625 387.085938 367.851562 387.613281 367.417969 C 447.960938 318.015625 440.105469 299.46875 433.625 269.105469 Z M 433.625 269.105469 " style=" stroke:none;fill-rule:nonzero;fill:rgb(97.254902%,89.803922%,79.215686%);fill-opacity:1;" />
<path d="M 185.238281 336.59375 C 184.605469 336.804688 183.96875 336.59375 183.332031 336.382812 L 179.726562 332.777344 C 142.628906 296.105469 123.972656 248.617188 122.699219 200.28125 C 123.125 200.707031 123.335938 201.339844 123.972656 201.976562 L 317.3125 195.195312 C 317.3125 195.195312 344.871094 257.519531 317.3125 299.917969 C 300.351562 325.78125 262.617188 344.4375 185.238281 336.59375 Z M 185.238281 336.59375 " style=" stroke:none;fill-rule:nonzero;fill:rgb(100%,62.352941%,0%);fill-opacity:1;" />
<path d="M 185.238281 336.59375 C 184.605469 336.804688 183.96875 336.59375 183.332031 336.382812 L 179.726562 332.777344 L 317.3125 195.195312 C 317.3125 195.195312 344.871094 257.519531 317.3125 299.917969 C 300.351562 325.78125 262.617188 344.4375 185.238281 336.59375 Z M 185.238281 336.59375 " style=" stroke:none;fill-rule:nonzero;fill:rgb(100%,47.058824%,8.627451%);fill-opacity:1;" />
<path d="M 243.324219 269.179688 C 213.011719 275.753906 173.15625 262.183594 123.972656 201.976562 C 123.335938 201.339844 123.125 200.707031 122.699219 200.28125 C 121.214844 146.222656 141.355469 97.675781 176.125 61.214844 C 175.914062 61.851562 175.699219 62.488281 175.914062 63.121094 L 317.3125 195.195312 C 317.3125 195.195312 292.933594 258.582031 243.324219 269.179688 Z M 243.324219 269.179688 " style=" stroke:none;fill-rule:nonzero;fill:rgb(98.039216%,92.54902%,84.705882%);fill-opacity:1;" />
<path d="M 243.324219 269.179688 L 317.3125 195.195312 C 317.3125 195.195312 292.933594 258.582031 243.324219 269.179688 Z M 243.324219 269.179688 " style=" stroke:none;fill-rule:nonzero;fill:rgb(97.254902%,89.803922%,79.215686%);fill-opacity:1;" />
<path d="M 310.605469 1.769531 C 311.132812 1.339844 311.648438 0.996094 312.179688 0.566406 C 262.34375 1.875 213.539062 21.703125 176.054688 61.226562 C 175.988281 61.894531 175.867188 62.492188 175.800781 63.164062 C 168.074219 140.65625 186.65625 178.273438 212.652344 195.195312 C 255.089844 222.820312 317.3125 195.195312 317.3125 195.195312 Z M 310.605469 1.769531 " style=" stroke:none;fill-rule:nonzero;fill:rgb(100%,62.352941%,0%);fill-opacity:1;" />
<path d="M 449.34375 53.679688 C 450.011719 53.75 450.613281 53.867188 451.28125 53.9375 C 414.839844 19.355469 366.152344 -0.820312 312.179688 0.566406 C 311.648438 0.996094 311.132812 1.339844 310.605469 1.769531 C 250.261719 51.171875 236.917969 90.917969 243.398438 121.28125 C 253.960938 170.734375 317.3125 195.195312 317.3125 195.195312 Z M 449.34375 53.679688 " style=" stroke:none;fill-rule:nonzero;fill:rgb(98.039216%,92.54902%,84.705882%);fill-opacity:1;" />
<path d="M 511.921875 190.105469 C 511.5 189.683594 511.285156 189.046875 510.648438 188.410156 L 317.3125 195.195312 C 317.3125 195.195312 289.753906 132.867188 317.3125 90.46875 C 334.269531 64.605469 372.007812 45.949219 449.386719 53.792969 C 450.019531 53.582031 450.65625 53.792969 451.292969 54.003906 L 454.894531 57.609375 C 491.996094 94.285156 510.652344 141.769531 511.921875 190.105469 Z M 511.921875 190.105469 " style=" stroke:none;fill-rule:nonzero;fill:rgb(100%,62.352941%,0%);fill-opacity:1;" />
<path d="M 511.921875 190.105469 C 511.5 189.683594 511.285156 189.046875 510.648438 188.410156 L 317.3125 195.195312 L 454.894531 57.609375 C 491.996094 94.285156 510.652344 141.769531 511.921875 190.105469 Z M 511.921875 190.105469 " style=" stroke:none;fill-rule:nonzero;fill:rgb(100%,47.058824%,8.627451%);fill-opacity:1;" />
<path d="M 458.5 329.175781 C 458.710938 328.539062 458.925781 327.902344 458.710938 327.269531 L 317.3125 195.195312 C 317.3125 195.195312 341.691406 131.808594 391.296875 121.207031 C 421.613281 114.636719 461.46875 128.203125 510.648438 188.410156 C 511.285156 189.046875 511.5 189.683594 511.921875 190.105469 C 513.40625 244.164062 493.265625 292.710938 458.5 329.175781 Z M 458.5 329.175781 " style=" stroke:none;fill-rule:nonzero;fill:rgb(98.039216%,92.54902%,84.705882%);fill-opacity:1;" />
<path d="M 458.5 329.175781 C 458.710938 328.539062 458.925781 327.902344 458.710938 327.269531 L 317.3125 195.195312 L 391.296875 121.207031 C 421.613281 114.636719 461.46875 128.203125 510.648438 188.410156 C 511.285156 189.046875 511.5 189.683594 511.921875 190.105469 C 513.40625 244.164062 493.265625 292.710938 458.5 329.175781 Z M 458.5 329.175781 " style=" stroke:none;fill-rule:nonzero;fill:rgb(97.254902%,89.803922%,79.215686%);fill-opacity:1;" />
<path d="M 322.445312 389.820312 C 372.28125 388.515625 421.085938 368.683594 458.566406 329.164062 C 458.636719 328.496094 458.757812 327.894531 458.824219 327.226562 C 466.550781 249.730469 447.96875 212.113281 421.972656 195.195312 C 379.535156 167.570312 317.308594 195.195312 317.308594 195.195312 C 317.308594 195.195312 380.660156 219.652344 391.222656 269.105469 C 397.707031 299.46875 384.363281 339.214844 324.015625 388.617188 C 323.488281 389.050781 322.972656 389.390625 322.445312 389.820312 Z M 322.445312 389.820312 " style=" stroke:none;fill-rule:nonzero;fill:rgb(100%,47.058824%,8.627451%);fill-opacity:1;" />
</g>
</svg>