<svg height="512pt" viewBox="0 0 512 512" width="512pt" xmlns="http://www.w3.org/2000/svg"><path d="m160.648438 310.082031-.875.878907-14.472657 14.472656-145.300781 145.296875 41.269531 41.269531 145.304688-145.308594 14.492187-14.488281.800782-.800781" fill="#e7e8f0"/><path d="m160.648438 310.082031-.875.878907-14.472657 14.472656-145.300781 145.296875 20.054688 20.058593 145.308593-145.308593 14.488281-14.492188.800782-.796875" fill="#cabfde"/><path d="m264.003906 344.371094c-6.257812 30.175781-21.324218 78.324218-52.671875 68.917968-42.371093-12.714843-12.007812-58.304687-8.246093-63.683593.042968-.0625.074218-.117188.117187-.167969-3.03125 4.117188-32.777344 43.101562-58.148437 20.050781-.429688-.394531-.867188-.8125-1.296876-1.242187-25.390624-25.402344 13.835938-55.777344 18.664063-59.359375-5.238281 3.667969-50.992187 34.230469-63.71875-8.222657-9.402344-31.347656 38.753906-46.414062 68.929687-52.675781l43.8125 43.8125zm0 0" fill="#ffc45a"/><path d="m202.898438 309.09375c-32.265626 6.09375-49.109376 35.378906-57.84375 60.394531-.429688-.394531-.867188-.8125-1.296876-1.242187-25.390624-25.402344 13.835938-55.777344 18.664063-59.359375-5.238281 3.667969-50.992187 34.230469-63.71875-8.222657-9.402344-31.347656 38.753906-46.414062 68.929687-52.675781l43.8125 43.8125c2.4375 9.164063.410157 15.601563-8.546874 17.292969zm0 0" fill="#ff9227"/><path d="m511.992188 181.0625c0 99.996094-81.0625 181.058594-181.058594 181.058594-100 0-181.0625-81.0625-181.0625-181.058594 0-100 81.0625-181.0625 181.0625-181.0625 99.996094 0 181.058594 81.0625 181.058594 181.0625zm0 0" fill="#ffc45a"/><path d="m273.429688 309.09375c26.339843 26.332031 58.773437 42.863281 92.765624 49.582031-57.261718 11.316407-118.929687-5.214843-163.296874-49.582031-70.707032-70.707031-70.707032-185.351562 0-256.058594 44.367187-44.367187 106.035156-60.898437 163.296874-49.582031-33.992187 6.71875-66.425781 23.25-92.765624 49.582031-70.707032 70.707032-70.707032 185.351563 0 256.058594zm0 0" fill="#ff9227"/><path d="m482.59375 280.027344c-52.421875 21.492187-18.105469-92.023438-58.859375-92.023438-40.75 0-17.238281 122.238282-70.527344 122.238282-53.28125 0 5.066407-120.671876-48.589843-120.671876-37.1875 0-28.398438 55.191407-69.136719 63.96875-.449219.113282-.910157.207032-1.378907.292969-42.320312 7.835938-43.886718-131.65625-31.203124-200.796875 44.199218-44.1875 105.554687-60.761718 162.617187-49.714844.230469.039063.449219.09375.679687.132813 33.988282 6.71875 66.421876 23.25 92.765626 49.582031 61.667968 61.667969 69.558593 156.773438 23.632812 226.992188zm0 0" fill="#f96eb3"/><path d="m273.429688 53.035156c-54.210938 54.207032-66.851563 134.234375-37.949219 200.503906-.449219.113282-.910157.207032-1.378907.292969-42.320312 7.835938-43.886718-131.65625-31.203124-200.796875 44.199218-44.1875 105.554687-60.761718 162.617187-49.714844.230469.039063.449219.09375.679687.132813-33.992187 6.71875-66.425781 23.25-92.765624 49.582031zm0 0" fill="#d83a6f"/></svg>