<?xml version="1.0" encoding="iso-8859-1"?>
<!-- Generator: Adobe Illustrator 21.0.0, SVG Export Plug-In . SVG Version: 6.00 Build 0)  -->
<svg version="1.1" id="Capa_1" xmlns="http://www.w3.org/2000/svg" xmlns:xlink="http://www.w3.org/1999/xlink" x="0px" y="0px"
	 viewBox="0 0 512 512" style="enable-background:new 0 0 512 512;" xml:space="preserve">
<g>
	<path style="fill:#A3E2EE;" d="M511.768,111.682c-0.253-4.773-3.313-8.927-7.798-10.582l-35.056-12.94
		c-3.319-1.225-5.375-4.538-4.999-8.057l0,0l2.28-21.357c0.386-3.61-0.866-7.155-3.434-9.722c-2.568-2.568-6.116-3.818-9.723-3.434
		l-21.356,2.281c-3.513,0.371-6.832-1.68-8.057-5L410.684,7.815c-1.655-4.484-5.81-7.546-10.583-7.798
		c-4.789-0.254-9.228,2.353-11.347,6.638c-0.093,0.188-0.178,0.379-0.254,0.573l-29.177,73.976
		c-1.096,2.779-0.439,5.944,1.674,8.056l6.177,6.177l3.242,42.642l0.233,3.057l45.699,3.475l6.177,6.177
		c1.434,1.434,3.352,2.197,5.305,2.197c0.925,0,1.857-0.171,2.75-0.523l73.975-29.177c0.195-0.077,0.386-0.162,0.574-0.255
		C509.416,120.909,512.021,116.455,511.768,111.682z"/>
	<path style="fill:#A3E2EE;" d="M151.002,422.74l-6.177-6.177l-1.301-17.109l-2.174-28.59l-18.118-1.378l0,0l-27.581-2.097
		l-6.177-6.177c-2.113-2.113-5.276-2.77-8.056-1.674L7.443,388.714c-0.195,0.077-0.386,0.162-0.574,0.255
		c-4.284,2.12-6.89,6.575-6.637,11.348s3.314,8.927,7.798,10.582l35.056,12.941c3.319,1.225,5.375,4.538,4.999,8.057
		c0,0.001,0,0.001,0,0.001l-2.28,21.356c-0.386,3.61,0.866,7.155,3.434,9.722c2.567,2.567,6.117,3.819,9.723,3.434l21.356-2.281
		c3.512-0.371,6.832,1.68,8.057,5l12.94,35.056c1.655,4.484,5.81,7.546,10.583,7.798c0.213,0.011,0.425,0.017,0.637,0.017
		c4.529-0.001,8.686-2.561,10.71-6.655c0.093-0.188,0.178-0.379,0.254-0.573l29.177-73.975
		C153.773,428.017,153.116,424.852,151.002,422.74z"/>
</g>
<path style="fill:#F9CD45;" d="M445.174,152.487l-4.146-4.146l-3.351,1.322l-15.339-20.014l-63.04-63.041
	c-18.642-18.642-48.972-18.642-67.614,0l-225.01,225.01c-18.641,18.641-18.641,48.972,0,67.614l85.878,85.878
	c9.321,9.321,21.564,13.981,33.807,13.981c12.243,0,24.486-4.66,33.807-13.981l225.009-225.009
	C463.816,201.46,463.816,171.128,445.174,152.487z"/>
<path style="fill:#F8B53C;" d="M422.348,199.924L198.163,424.108c-9.321,9.321-21.564,13.981-33.807,13.981
	c-9.666,0-19.325-2.917-27.552-8.727l15.747,15.747c9.321,9.321,21.564,13.981,33.807,13.981c12.243,0,24.486-4.66,33.807-13.981
	l202.183-202.183L422.348,199.924L422.348,199.924z"/>
<g>
	<path style="fill:#F195D6;" d="M422.337,129.649v113.289l22.837-22.837c18.642-18.642,18.642-48.972,0-67.614l-4.147-4.147
		l-3.351,1.322L422.337,129.649z"/>
	<path style="fill:#F195D6;" d="M299.683,60.176v305.416l46.352-46.351V57.252C331.274,50.243,313.645,51.22,299.683,60.176z"/>
	<path style="fill:#F195D6;" d="M222.908,135.385l-56.848,56.848v262.356c6.412,2.999,13.354,4.501,20.299,4.501
		c12.243,0,24.486-4.66,33.807-13.981l2.742-2.742V135.385z"/>
	<path style="fill:#F195D6;" d="M89.762,268.531l-23.088,23.088c-18.641,18.641-18.641,48.972,0,67.614l23.088,23.088V268.531z"/>
</g>
<g>
	<path style="fill:#E480BE;" d="M445.174,152.487l-22.837-22.838l0,0c0,0,31.458,38.827,0.835,69.449l-0.835,0.835v43.004
		l22.837-22.837C463.816,201.46,463.816,171.128,445.174,152.487z"/>
	<polygon style="fill:#E480BE;" points="346.035,276.236 299.683,322.588 299.683,365.592 346.035,319.24 	"/>
	<path style="fill:#E480BE;" d="M198.163,424.108c-8.888,8.888-20.435,13.528-32.104,13.94v16.54c0.001,0,0.001,0.001,0.001,0.001
		c1.563,0.731,3.159,1.37,4.777,1.923c0.18,0.061,0.363,0.116,0.544,0.175c0.607,0.199,1.216,0.39,1.83,0.564
		c0.251,0.071,0.503,0.136,0.754,0.203c0.548,0.146,1.098,0.285,1.651,0.411c0.284,0.065,0.569,0.127,0.854,0.186
		c0.527,0.111,1.055,0.211,1.584,0.305c0.299,0.052,0.598,0.104,0.897,0.151c0.527,0.082,1.055,0.151,1.584,0.216
		c0.296,0.036,0.592,0.076,0.889,0.106c0.564,0.058,1.129,0.1,1.694,0.138c0.258,0.017,0.516,0.042,0.774,0.056
		c0.82,0.042,1.641,0.067,2.463,0.067c12.243,0,24.486-4.66,33.807-13.981l2.742-2.742v-43.004L198.163,424.108z"/>
</g>
<path style="fill:#76CDE6;" d="M511.768,111.682c-0.253-4.773-3.313-8.927-7.798-10.582l-9.927-3.665
	c-1.036,2.819-3.112,5.206-5.914,6.593c-0.188,0.093-0.379,0.178-0.574,0.255l-65.155,25.697l18.436,18.436l63.721-25.131
	c0.195-0.077,0.386-0.162,0.574-0.255C509.416,120.909,512.021,116.455,511.768,111.682z"/>
<path style="fill:#65CEE3;" d="M131.436,423.937l-27.937,70.833c-0.077,0.194-0.162,0.386-0.254,0.573
	c-0.86,1.739-2.107,3.197-3.602,4.304l1.674,4.535c1.655,4.484,5.81,7.546,10.583,7.798c0.213,0.011,0.425,0.017,0.637,0.017
	c4.529-0.001,8.686-2.561,10.71-6.655c0.093-0.188,0.178-0.379,0.254-0.573l25.108-63.661L131.436,423.937z"/>
<g>
</g>
<g>
</g>
<g>
</g>
<g>
</g>
<g>
</g>
<g>
</g>
<g>
</g>
<g>
</g>
<g>
</g>
<g>
</g>
<g>
</g>
<g>
</g>
<g>
</g>
<g>
</g>
<g>
</g>
</svg>
