<svg xmlns="http://www.w3.org/2000/svg" height="511.99983pt" version="1.1" viewBox="0 0 511.99983 511.99983" width="511.99983pt">
<g id="surface1">
<path d="M 318.984375 98.875 C 320.988281 47.527344 340.269531 20.765625 359.023438 6.839844 C 374.84375 -4.910156 397.246094 -1.070312 408.808594 14.882812 C 427.578125 40.773438 437.734375 18.089844 465.824219 46.175781 C 493.910156 74.265625 471.230469 84.421875 497.117188 103.191406 C 513.070312 114.753906 516.910156 137.15625 505.160156 152.976562 C 491.234375 171.730469 464.472656 191.011719 413.125 193.015625 Z M 318.984375 98.875 " style=" stroke:none;fill-rule:nonzero;fill:rgb(99.607843%,80.392157%,21.960784%);fill-opacity:1;" />
<path d="M 381.726562 138 C 379.75 138 377.773438 137.246094 376.265625 135.738281 C 373.246094 132.71875 373.246094 127.828125 376.265625 124.808594 L 421.257812 79.816406 C 424.273438 76.800781 429.167969 76.800781 432.183594 79.816406 C 435.203125 82.835938 435.203125 87.726562 432.183594 90.742188 L 387.191406 135.738281 C 385.683594 137.246094 383.703125 138 381.726562 138 Z M 381.726562 138 " style=" stroke:none;fill-rule:nonzero;fill:rgb(97.254902%,63.921569%,24.313725%);fill-opacity:1;" />
<path d="M 342.710938 130.320312 C 342.128906 130.320312 341.542969 130.253906 340.953125 130.117188 C 336.796875 129.152344 334.210938 125 335.179688 120.84375 C 346.167969 73.574219 369.851562 51.421875 370.851562 50.503906 C 373.996094 47.621094 378.882812 47.828125 381.769531 50.972656 C 384.648438 54.113281 384.445312 58.988281 381.316406 61.875 C 380.9375 62.230469 360.019531 82.234375 350.230469 124.339844 C 349.398438 127.910156 346.222656 130.320312 342.710938 130.320312 Z M 342.710938 130.320312 " style=" stroke:none;fill-rule:nonzero;fill:rgb(97.254902%,63.921569%,24.313725%);fill-opacity:1;" />
<path d="M 389.402344 177.027344 C 385.890625 177.027344 382.710938 174.613281 381.882812 171.046875 C 380.917969 166.890625 383.503906 162.738281 387.660156 161.773438 C 429.9375 151.945312 449.933594 130.894531 450.128906 130.683594 C 453.03125 127.570312 457.914062 127.375 461.039062 130.265625 C 464.164062 133.152344 464.375 138.011719 461.496094 141.148438 C 460.578125 142.152344 438.425781 165.835938 391.15625 176.824219 C 390.570312 176.960938 389.980469 177.027344 389.402344 177.027344 Z M 389.402344 177.027344 " style=" stroke:none;fill-rule:nonzero;fill:rgb(97.254902%,63.921569%,24.313725%);fill-opacity:1;" />
<path d="M 98.875 318.984375 C 47.527344 320.988281 20.765625 340.269531 6.839844 359.023438 C -4.910156 374.84375 -1.070312 397.246094 14.882812 408.808594 C 40.773438 427.578125 18.089844 437.734375 46.175781 465.824219 C 74.265625 493.910156 84.421875 471.230469 103.191406 497.117188 C 114.753906 513.070312 137.15625 516.910156 152.976562 505.160156 C 171.730469 491.234375 191.011719 464.472656 193.015625 413.125 Z M 98.875 318.984375 " style=" stroke:none;fill-rule:nonzero;fill:rgb(99.607843%,80.392157%,21.960784%);fill-opacity:1;" />
<path d="M 85.28125 434.445312 C 83.304688 434.445312 81.324219 433.691406 79.816406 432.183594 C 76.800781 429.164062 76.800781 424.273438 79.816406 421.257812 L 124.808594 376.265625 C 127.828125 373.246094 132.71875 373.246094 135.738281 376.265625 C 138.753906 379.28125 138.753906 384.171875 135.738281 387.191406 L 90.742188 432.183594 C 89.234375 433.691406 87.257812 434.445312 85.28125 434.445312 Z M 85.28125 434.445312 " style=" stroke:none;fill-rule:nonzero;fill:rgb(97.254902%,63.921569%,24.313725%);fill-opacity:1;" />
<path d="M 56.195312 383.800781 C 54.328125 383.800781 52.457031 383.128906 50.976562 381.769531 C 47.828125 378.882812 47.617188 373.996094 50.503906 370.851562 C 51.421875 369.851562 73.574219 346.164062 120.839844 335.179688 C 124.996094 334.210938 129.148438 336.796875 130.117188 340.953125 C 131.082031 345.109375 128.496094 349.261719 124.339844 350.230469 C 81.679688 360.148438 62.085938 381.085938 61.890625 381.296875 C 60.367188 382.957031 58.285156 383.800781 56.195312 383.800781 Z M 56.195312 383.800781 " style=" stroke:none;fill-rule:nonzero;fill:rgb(97.254902%,63.921569%,24.313725%);fill-opacity:1;" />
<path d="M 135.925781 463.53125 C 133.839844 463.53125 131.753906 462.6875 130.230469 461.027344 C 127.351562 457.890625 127.558594 453.011719 130.683594 450.128906 C 131.066406 449.769531 151.984375 429.765625 161.769531 387.660156 C 162.738281 383.503906 166.890625 380.917969 171.046875 381.882812 C 175.203125 382.851562 177.789062 387.003906 176.824219 391.160156 C 165.832031 438.429688 142.152344 460.578125 141.148438 461.5 C 139.664062 462.859375 137.792969 463.53125 135.925781 463.53125 Z M 135.925781 463.53125 " style=" stroke:none;fill-rule:nonzero;fill:rgb(97.254902%,63.921569%,24.313725%);fill-opacity:1;" />
<path d="M 153.863281 153.863281 C 151.027344 156.703125 148.289062 159.597656 145.648438 162.53125 L 122.609375 281.828125 L 146.371094 395.210938 C 166.914062 409.523438 191.457031 417 217.390625 417.898438 L 256.953125 334.792969 L 255.648438 172.851562 L 213.066406 111.871094 C 192.050781 121.824219 171.867188 135.863281 153.863281 153.863281 Z M 153.863281 153.863281 " style=" stroke:none;fill-rule:nonzero;fill:rgb(65.098039%,42.745098%,76.078431%);fill-opacity:1;" />
<path d="M 296.570312 94.179688 L 255.644531 172.851562 L 256.953125 334.792969 L 304.167969 397.550781 C 323.296875 387.808594 341.640625 374.632812 358.136719 358.136719 C 366.289062 349.984375 373.625 341.386719 380.144531 332.460938 L 398.59375 214.601562 L 372.183594 121.699219 C 350.902344 104.570312 324.59375 95.511719 296.570312 94.179688 Z M 296.570312 94.179688 " style=" stroke:none;fill-rule:nonzero;fill:rgb(65.098039%,42.745098%,76.078431%);fill-opacity:1;" />
<path d="M 145.648438 162.53125 C 146.527344 173.839844 147.269531 185.253906 147.890625 196.761719 C 151.308594 260.289062 150.785156 326.878906 146.371094 395.210938 C 140.679688 391.246094 135.296875 386.753906 130.273438 381.730469 C 76.171875 327.628906 83.679688 231.566406 145.648438 162.53125 Z M 145.648438 162.53125 " style=" stroke:none;fill-rule:nonzero;fill:rgb(99.607843%,80.392157%,21.960784%);fill-opacity:1;" />
<path d="M 379.785156 332.953125 C 379.90625 332.789062 380.023438 332.625 380.144531 332.460938 L 398.59375 214.601562 L 396.050781 205.667969 C 394.980469 240.828125 382.183594 277.886719 358.289062 310.609375 C 351.773438 319.53125 344.433594 328.128906 336.28125 336.285156 C 320.90625 351.660156 303.921875 364.148438 286.199219 373.667969 L 304.171875 397.554688 C 323.296875 387.808594 341.640625 374.632812 358.136719 358.136719 C 365.84375 350.429688 373.246094 341.867188 379.785156 332.953125 Z M 379.785156 332.953125 " style=" stroke:none;fill-rule:nonzero;fill:rgb(56.470588%,37.254902%,65.882353%);fill-opacity:1;" />
<path d="M 372.742188 123.675781 L 372.183594 121.703125 C 371.9375 121.503906 371.683594 121.316406 371.433594 121.125 C 371.003906 120.785156 370.566406 120.457031 370.132812 120.121094 C 371.03125 121.289062 371.894531 122.480469 372.742188 123.675781 Z M 372.742188 123.675781 " style=" stroke:none;fill-rule:nonzero;fill:rgb(56.470588%,37.254902%,65.882353%);fill-opacity:1;" />
<path d="M 296.570312 94.179688 C 300.867188 127.40625 303.957031 161.648438 305.847656 196.753906 C 309.292969 261.015625 308.726562 328.398438 304.171875 397.550781 C 275.84375 411.980469 245.773438 418.878906 217.390625 417.898438 C 223.457031 342.652344 224.601562 269.507812 220.851562 200.355469 C 219.203125 170.074219 216.605469 140.558594 213.066406 111.871094 C 240.507812 98.894531 269.347656 92.886719 296.570312 94.179688 Z M 296.570312 94.179688 " style=" stroke:none;fill-rule:nonzero;fill:rgb(99.607843%,80.392157%,21.960784%);fill-opacity:1;" />
<path d="M 381.730469 130.269531 C 431.511719 180.054688 429.128906 265.375 380.144531 332.460938 C 381.558594 287.199219 381.113281 243.023438 378.800781 200.355469 C 377.34375 173.523438 375.132812 147.285156 372.183594 121.703125 C 375.496094 124.363281 378.679688 127.222656 381.730469 130.269531 Z M 381.730469 130.269531 " style=" stroke:none;fill-rule:nonzero;fill:rgb(99.607843%,80.392157%,21.960784%);fill-opacity:1;" />
<path d="M 381.730469 130.273438 C 378.707031 127.246094 375.519531 124.382812 372.183594 121.703125 C 372.238281 122.167969 372.285156 122.636719 372.339844 123.105469 C 401.269531 163.347656 403.4375 219.425781 380.898438 271.289062 C 381.027344 291.429688 380.789062 311.828125 380.144531 332.460938 C 429.128906 265.378906 431.511719 180.054688 381.730469 130.273438 Z M 381.730469 130.273438 " style=" stroke:none;fill-rule:nonzero;fill:rgb(97.254902%,63.921569%,24.313725%);fill-opacity:1;" />
<path d="M 217.390625 417.898438 L 228.921875 393.675781 C 217.675781 395.617188 206.480469 396.421875 195.535156 396.042969 C 177.417969 395.417969 159.980469 391.566406 144.109375 384.429688 L 146.371094 395.210938 C 148.9375 397 151.566406 398.683594 154.253906 400.257812 C 169.039062 408.925781 185.558594 414.378906 202.964844 416.699219 C 207.714844 417.328125 212.527344 417.730469 217.390625 417.898438 Z M 217.390625 417.898438 " style=" stroke:none;fill-rule:nonzero;fill:rgb(56.470588%,37.254902%,65.882353%);fill-opacity:1;" />
<path d="M 146.953125 385.65625 C 139.078125 382.347656 131.558594 378.261719 124.515625 373.355469 C 123.019531 372.3125 121.542969 371.230469 120.085938 370.113281 C 120.859375 371.117188 121.652344 372.117188 122.460938 373.101562 C 122.46875 373.109375 122.472656 373.117188 122.480469 373.125 C 128.820312 380.871094 136.167969 387.800781 144.25 393.699219 C 144.953125 394.210938 145.660156 394.714844 146.371094 395.210938 C 146.578125 392.019531 146.765625 388.839844 146.953125 385.65625 Z M 146.953125 385.65625 " style=" stroke:none;fill-rule:nonzero;fill:rgb(97.254902%,63.921569%,24.313725%);fill-opacity:1;" />
<path d="M 306.1875 361.421875 C 298.425781 366.792969 290.445312 371.558594 282.316406 375.699219 C 261.714844 386.191406 240.195312 392.683594 219.070312 395.074219 C 218.554688 402.664062 218.007812 410.265625 217.390625 417.898438 C 235.128906 418.511719 253.527344 416.046875 271.746094 410.589844 C 282.679688 407.316406 293.546875 402.964844 304.171875 397.554688 C 304.96875 385.453125 305.636719 373.40625 306.1875 361.421875 Z M 306.1875 361.421875 " style=" stroke:none;fill-rule:nonzero;fill:rgb(97.254902%,63.921569%,24.313725%);fill-opacity:1;" />
</g>
</svg>